<?xml version="1.0" encoding="utf-8"?>
<!-- Generator: Adobe Illustrator 24.1.2, SVG Export Plug-In . SVG Version: 6.00 Build 0)  -->
<svg version="1.1" id="Шар_1" xmlns="http://www.w3.org/2000/svg" xmlns:xlink="http://www.w3.org/1999/xlink" x="0px" y="0px"
	 viewBox="0 0 500 500" style="enable-background:new 0 0 500 500;" xml:space="preserve">
<style type="text/css">
	.st0{fill:#F97A15;}
	.st1{fill:#7B7C80;}
	.st2{fill:#3E3847;}
	.st3{fill:#AAAAAA;}
	.st4{fill:#909396;}
</style>
<g>
	<g>
		<path class="st0" d="M251.03,26.79c122.96,0.17,223.89,101.11,224.05,224.07c0.16,122.96-101.93,224.9-224.57,224.23
			C127.2,474.42,26.35,373.25,26.79,250.68C27.24,127.52,128.3,26.62,251.03,26.79z M402.29,385.84c0.86-0.75,1.84-1.4,2.56-2.27
			c38.4-46.2,54.79-99.38,46.79-158.76C435.27,103.27,318.15,24.94,199.32,54.97C97.65,80.68,31.59,182.88,50.03,286.2
			c7.09,39.73,23.93,74.7,52.1,103.92c50.83,53.09,112.9,73.29,184.95,61.14C333.03,443.51,371.67,421.35,402.29,385.84z"/>
		<path class="st1" d="M102.14,390.12c-28.17-29.22-45.01-64.19-52.1-103.92C31.59,182.88,97.65,80.68,199.32,54.97
			c118.82-30.04,235.95,48.3,252.32,169.84c8,59.38-8.4,112.56-46.79,158.76c-0.72,0.87-1.7,1.52-2.56,2.27
			c-7.46-4.74-14.38-11.92-22.5-13.74c-20.2-4.52-40.94-6.59-61.46-9.64c-1.02-5.59-2.2-11.15-3.02-16.76
			c-1.52-10.45,1.45-18.94,8.34-27.58c14.07-17.66,19.15-38.74,18.2-61.25c11.49-6.59,17.21-17.83,18.57-29.71
			c2.11-18.41,1.8-37.13,1.83-55.72c0.05-33.02-26.82-60.3-59.79-60.67c-29.46-0.33-58.93-0.19-88.39-0.02
			c-11.53,0.06-19.88,5.64-25.86,15.58c-1.73,2.87-5.26,5.53-8.5,6.48c-18.16,5.33-33.82,23.02-34.41,40.71
			c-0.51,15.17-1.06,30.46,0.16,45.55c1.21,15.05,6.42,28.95,20.13,37.81c-0.86,18.97,3.09,36.84,12.68,53.26
			c4.33,7.4,9.37,14.38,14.1,21.55c-1.07,10.31-2.13,20.61-3.2,30.92c-16.34,2.19-32.65,4.65-49.03,6.5
			C124.42,370.86,111.58,377.3,102.14,390.12z"/>
		<path class="st2" d="M102.14,390.12c9.44-12.82,22.29-19.27,37.99-21.03c16.38-1.84,32.69-4.3,49.03-6.5
			c1.47,3.27,2.67,6.69,4.44,9.78c5.26,9.15,10.75,18.17,16.14,27.24c18.02,17.29,39.7,20.47,62.65,14.31
			c21.97-5.9,36.78-19.95,41.7-43.1c0.63-2.96,2.78-5.59,4.23-8.37c20.52,3.05,41.27,5.13,61.46,9.64c8.12,1.82,15.04,9,22.5,13.74
			c-30.62,35.51-69.25,57.67-115.2,65.42C215.04,463.42,152.97,443.22,102.14,390.12z"/>
		<path class="st3" d="M318.32,362.46c-1.45,2.78-3.6,5.41-4.23,8.37c-4.92,23.15-19.73,37.21-41.7,43.1
			c-22.96,6.16-44.63,2.97-62.65-14.32c2.04-0.27,4.11-0.36,6.1-0.83c23.06-5.48,42.87-17.39,60.88-32.17
			c10.3-8.45,19.27-18.53,28.83-27.87c0.1-0.19,0.2-0.37,0.3-0.56c-0.1,0.18-0.21,0.37-0.31,0.55c-0.87,0.26-1.88,0.33-2.59,0.82
			c-30.54,21.15-61.86,21.79-93.78,3.42c-5.84-3.36-11.23-7.51-16.83-11.29c-4.72-7.17-9.77-14.15-14.1-21.55
			c-9.59-16.42-13.54-34.3-12.68-53.26c0.05-12.89-0.1-25.79,0.19-38.68c0.37-16.42,12.56-30.2,28.97-31.58
			c12.8-1.08,25.73-0.56,38.61-0.76c-18.43,10.25-27,24.96-21.9,39.85c1.58,4.59,6.16,8.77,10.42,11.53
			c1.71,1.11,8.51-1.54,9.01-3.49c1.16-4.59,1.3-10.4-0.58-14.63c-7.49-16.86-0.77-28,17.84-28.25c12.54-0.17,23.52,8.08,27.05,20.6
			c4.36,15.45-0.73,29.1-7.09,43.12c-7.14,15.73-12.37,32.34-18.13,48.68c-0.62,1.76,0.79,4.24,1.25,6.38
			c1.2-1.99,2.57-3.89,3.57-5.98c4.36-9.19,7.62-19.09,13.17-27.47c6.31-9.52,15.22-17.29,21.98-26.56
			c17.36-23.84,11.56-49.59-13.76-63.62c12.6-0.1,25.22-0.72,37.8-0.19c18,0.77,27.7,11.57,27.79,29.8
			c0.07,13.75,0.05,27.51,0.08,41.26c0.96,22.51-4.13,43.6-18.2,61.25c-6.88,8.64-9.85,17.12-8.34,27.58
			C316.12,351.31,317.3,356.87,318.32,362.46z M252.67,323.52c-7.57-0.09-13.36,5.64-13.54,13.39c-0.19,8.12,5.56,14.46,13.35,14.21
			c8.47-0.26,13.01-5.32,13.8-13.36C267,330.31,260.23,323.61,252.67,323.52z"/>
		<path class="st2" d="M341.83,256.87c-0.02-13.75-0.01-27.51-0.08-41.26c-0.09-18.23-9.79-29.03-27.79-29.8
			c-12.57-0.54-25.19,0.08-37.79,0.18c-14.26-4.53-28.54-4.93-42.84-0.15c-12.87,0.19-25.81-0.32-38.61,0.76
			c-16.42,1.38-28.61,15.16-28.97,31.58c-0.29,12.89-0.14,25.79-0.19,38.68c-13.72-8.86-18.92-22.76-20.13-37.81
			c-1.21-15.09-0.67-30.37-0.16-45.55c0.59-17.69,16.25-35.39,34.41-40.71c3.24-0.95,6.77-3.61,8.5-6.48
			c5.98-9.93,14.33-15.51,25.86-15.58c29.46-0.16,58.93-0.31,88.39,0.02c32.97,0.37,59.84,27.65,59.79,60.67
			c-0.03,18.59,0.28,37.32-1.83,55.72C359.04,239.03,353.32,250.28,341.83,256.87z"/>
		<path class="st4" d="M192.35,331.68c5.6,3.79,10.99,7.93,16.83,11.29c31.92,18.37,63.24,17.73,93.78-3.42
			c0.71-0.49,1.72-0.56,2.59-0.82l0.01,0.01c-9.57,9.34-18.53,19.42-28.83,27.87c-18.01,14.78-37.83,26.69-60.88,32.17
			c-1.99,0.47-4.06,0.57-6.1,0.83c-5.4-9.07-10.88-18.09-16.14-27.24c-1.78-3.09-2.98-6.51-4.44-9.78
			C190.22,352.29,191.29,341.98,192.35,331.68z"/>
		<path class="st0" d="M233.34,185.85c14.3-4.78,28.58-4.39,42.84,0.15c25.32,14.02,31.12,39.78,13.75,63.62
			c-6.76,9.28-15.67,17.04-21.98,26.56c-5.55,8.38-8.81,18.29-13.17,27.47c-0.99,2.09-2.37,3.99-3.57,5.98
			c-0.47-2.14-1.87-4.62-1.25-6.38c5.76-16.34,10.98-32.95,18.13-48.68c6.37-14.02,11.45-27.67,7.09-43.12
			c-3.53-12.52-14.52-20.77-27.05-20.6c-18.61,0.25-25.33,11.39-17.84,28.25c1.88,4.23,1.75,10.04,0.58,14.63
			c-0.49,1.95-7.3,4.6-9.01,3.49c-4.25-2.76-8.84-6.93-10.42-11.53C206.34,210.8,214.91,196.09,233.34,185.85z"/>
		<path class="st0" d="M252.67,323.52c7.57,0.09,14.33,6.78,13.6,14.25c-0.79,8.04-5.32,13.09-13.8,13.36
			c-7.78,0.24-13.53-6.09-13.35-14.21C239.31,329.16,245.1,323.44,252.67,323.52z"/>
		<path class="st4" d="M305.55,338.73c0.1-0.18,0.21-0.37,0.31-0.55C305.76,338.36,305.66,338.55,305.55,338.73
			C305.56,338.74,305.55,338.73,305.55,338.73z"/>
	</g>
</g>
</svg>
