<svg width="296" height="142" viewBox="0 0 296 142" fill="none" xmlns="http://www.w3.org/2000/svg">
<path fill-rule="evenodd" clip-rule="evenodd" d="M6.73805 12.4557C9.90841 12.4557 12.4784 9.88963 12.4784 6.72404C12.4784 3.55788 9.90841 0.990835 6.73805 0.990835C3.56739 0.990835 0.996755 3.55788 0.996755 6.72404C0.996755 9.88963 3.56739 12.4557 6.73805 12.4557ZM53.9911 12.4557C57.1618 12.4557 59.7321 9.88963 59.7321 6.72404C59.7321 3.55788 57.1618 0.990835 53.9911 0.990835C50.8205 0.990835 48.2504 3.55788 48.2504 6.72404C48.2504 9.88963 50.8205 12.4557 53.9911 12.4557ZM106.986 6.72404C106.986 9.88963 104.415 12.4557 101.244 12.4557C98.0736 12.4557 95.5038 9.88963 95.5038 6.72404C95.5038 3.55788 98.0736 0.990835 101.244 0.990835C104.415 0.990835 106.986 3.55788 106.986 6.72404ZM148.498 12.4557C151.669 12.4557 154.239 9.88963 154.239 6.72404C154.239 3.55788 151.669 0.990835 148.498 0.990835C145.327 0.990835 142.757 3.55788 142.757 6.72404C142.757 9.88963 145.327 12.4557 148.498 12.4557ZM201.492 6.72404C201.492 9.88963 198.922 12.4557 195.751 12.4557C192.581 12.4557 190.01 9.88963 190.01 6.72404C190.01 3.55788 192.581 0.990835 195.751 0.990835C198.922 0.990835 201.492 3.55788 201.492 6.72404ZM243.005 12.4557C246.175 12.4557 248.746 9.88963 248.746 6.72404C248.746 3.55788 246.175 0.990835 243.005 0.990835C239.834 0.990835 237.264 3.55788 237.264 6.72404C237.264 9.88963 239.834 12.4557 243.005 12.4557ZM295.999 6.72404C295.999 9.88963 293.429 12.4557 290.258 12.4557C287.087 12.4557 284.517 9.88963 284.517 6.72404C284.517 3.55788 287.087 0.990835 290.258 0.990835C293.429 0.990835 295.999 3.55788 295.999 6.72404ZM6.73805 55.6362C9.90841 55.6362 12.4784 53.0698 12.4784 49.9036C12.4784 46.738 9.90841 44.1714 6.73805 44.1714C3.56739 44.1714 0.996755 46.738 0.996755 49.9036C0.996755 53.0698 3.56739 55.6362 6.73805 55.6362ZM59.7321 49.9036C59.7321 53.0698 57.1618 55.6362 53.9911 55.6362C50.8205 55.6362 48.2504 53.0698 48.2504 49.9036C48.2504 46.738 50.8205 44.1714 53.9911 44.1714C57.1618 44.1714 59.7321 46.738 59.7321 49.9036ZM101.244 55.6362C104.415 55.6362 106.986 53.0698 106.986 49.9036C106.986 46.738 104.415 44.1714 101.244 44.1714C98.0736 44.1714 95.5038 46.738 95.5038 49.9036C95.5038 53.0698 98.0736 55.6362 101.244 55.6362ZM154.239 49.9036C154.239 53.0698 151.669 55.6362 148.498 55.6362C145.327 55.6362 142.757 53.0698 142.757 49.9036C142.757 46.738 145.327 44.1714 148.498 44.1714C151.669 44.1714 154.239 46.738 154.239 49.9036ZM195.751 55.6362C198.922 55.6362 201.492 53.0698 201.492 49.9036C201.492 46.738 198.922 44.1714 195.751 44.1714C192.581 44.1714 190.01 46.738 190.01 49.9036C190.01 53.0698 192.581 55.6362 195.751 55.6362ZM248.746 49.9036C248.746 53.0698 246.175 55.6362 243.005 55.6362C239.834 55.6362 237.264 53.0698 237.264 49.9036C237.264 46.738 239.834 44.1714 243.005 44.1714C246.175 44.1714 248.746 46.738 248.746 49.9036ZM290.258 55.6362C293.429 55.6362 295.999 53.0698 295.999 49.9036C295.999 46.738 293.429 44.1714 290.258 44.1714C287.087 44.1714 284.517 46.738 284.517 49.9036C284.517 53.0698 287.087 55.6362 290.258 55.6362ZM12.4784 93.0841C12.4784 96.2503 9.90841 98.8168 6.73805 98.8168C3.56739 98.8168 0.996755 96.2503 0.996755 93.0841C0.996755 89.9176 3.56739 87.3515 6.73805 87.3515C9.90841 87.3515 12.4784 89.9176 12.4784 93.0841ZM53.9911 98.8168C57.1618 98.8168 59.7321 96.2503 59.7321 93.0841C59.7321 89.9176 57.1618 87.3515 53.9911 87.3515C50.8205 87.3515 48.2504 89.9176 48.2504 93.0841C48.2504 96.2503 50.8205 98.8168 53.9911 98.8168ZM106.986 93.0841C106.986 96.2503 104.415 98.8168 101.244 98.8168C98.0736 98.8168 95.5038 96.2503 95.5038 93.0841C95.5038 89.9176 98.0736 87.3515 101.244 87.3515C104.415 87.3515 106.986 89.9176 106.986 93.0841ZM148.498 98.8168C151.669 98.8168 154.239 96.2503 154.239 93.0841C154.239 89.9176 151.669 87.3515 148.498 87.3515C145.327 87.3515 142.757 89.9176 142.757 93.0841C142.757 96.2503 145.327 98.8168 148.498 98.8168ZM201.492 93.0841C201.492 96.2503 198.922 98.8168 195.751 98.8168C192.581 98.8168 190.01 96.2503 190.01 93.0841C190.01 89.9176 192.581 87.3515 195.751 87.3515C198.922 87.3515 201.492 89.9176 201.492 93.0841ZM243.005 98.8168C246.175 98.8168 248.746 96.2503 248.746 93.0841C248.746 89.9176 246.175 87.3515 243.005 87.3515C239.834 87.3515 237.264 89.9176 237.264 93.0841C237.264 96.2503 239.834 98.8168 243.005 98.8168ZM295.999 93.0841C295.999 96.2503 293.429 98.8168 290.258 98.8168C287.087 98.8168 284.517 96.2503 284.517 93.0841C284.517 89.9176 287.087 87.3515 290.258 87.3515C293.429 87.3515 295.999 89.9176 295.999 93.0841ZM6.73805 141.996C9.90841 141.996 12.4784 139.43 12.4784 136.264C12.4784 133.098 9.90841 130.532 6.73805 130.532C3.56739 130.532 0.996755 133.098 0.996755 136.264C0.996755 139.43 3.56739 141.996 6.73805 141.996ZM59.7321 136.264C59.7321 139.43 57.1618 141.996 53.9911 141.996C50.8205 141.996 48.2504 139.43 48.2504 136.264C48.2504 133.098 50.8205 130.532 53.9911 130.532C57.1618 130.532 59.7321 133.098 59.7321 136.264ZM101.244 141.996C104.415 141.996 106.986 139.43 106.986 136.264C106.986 133.098 104.415 130.532 101.244 130.532C98.0736 130.532 95.5038 133.098 95.5038 136.264C95.5038 139.43 98.0736 141.996 101.244 141.996ZM154.239 136.264C154.239 139.43 151.669 141.996 148.498 141.996C145.327 141.996 142.757 139.43 142.757 136.264C142.757 133.098 145.327 130.532 148.498 130.532C151.669 130.532 154.239 133.098 154.239 136.264ZM195.751 141.996C198.922 141.996 201.492 139.43 201.492 136.264C201.492 133.098 198.922 130.532 195.751 130.532C192.581 130.532 190.01 133.098 190.01 136.264C190.01 139.43 192.581 141.996 195.751 141.996ZM248.746 136.264C248.746 139.43 246.175 141.996 243.005 141.996C239.834 141.996 237.264 139.43 237.264 136.264C237.264 133.098 239.834 130.532 243.005 130.532C246.175 130.532 248.746 133.098 248.746 136.264ZM290.258 141.996C293.429 141.996 295.999 139.43 295.999 136.264C295.999 133.098 293.429 130.532 290.258 130.532C287.087 130.532 284.517 133.098 284.517 136.264C284.517 139.43 287.087 141.996 290.258 141.996Z" fill="#0077F9"/>
<path fill-rule="evenodd" clip-rule="evenodd" d="M6.73805 12.4557C9.90841 12.4557 12.4784 9.88963 12.4784 6.72404C12.4784 3.55788 9.90841 0.990835 6.73805 0.990835C3.56739 0.990835 0.996755 3.55788 0.996755 6.72404C0.996755 9.88963 3.56739 12.4557 6.73805 12.4557ZM53.9911 12.4557C57.1618 12.4557 59.7321 9.88963 59.7321 6.72404C59.7321 3.55788 57.1618 0.990835 53.9911 0.990835C50.8205 0.990835 48.2504 3.55788 48.2504 6.72404C48.2504 9.88963 50.8205 12.4557 53.9911 12.4557ZM106.986 6.72404C106.986 9.88963 104.415 12.4557 101.244 12.4557C98.0736 12.4557 95.5038 9.88963 95.5038 6.72404C95.5038 3.55788 98.0736 0.990835 101.244 0.990835C104.415 0.990835 106.986 3.55788 106.986 6.72404ZM148.498 12.4557C151.669 12.4557 154.239 9.88963 154.239 6.72404C154.239 3.55788 151.669 0.990835 148.498 0.990835C145.327 0.990835 142.757 3.55788 142.757 6.72404C142.757 9.88963 145.327 12.4557 148.498 12.4557ZM201.492 6.72404C201.492 9.88963 198.922 12.4557 195.751 12.4557C192.581 12.4557 190.01 9.88963 190.01 6.72404C190.01 3.55788 192.581 0.990835 195.751 0.990835C198.922 0.990835 201.492 3.55788 201.492 6.72404ZM243.005 12.4557C246.175 12.4557 248.746 9.88963 248.746 6.72404C248.746 3.55788 246.175 0.990835 243.005 0.990835C239.834 0.990835 237.264 3.55788 237.264 6.72404C237.264 9.88963 239.834 12.4557 243.005 12.4557ZM295.999 6.72404C295.999 9.88963 293.429 12.4557 290.258 12.4557C287.087 12.4557 284.517 9.88963 284.517 6.72404C284.517 3.55788 287.087 0.990835 290.258 0.990835C293.429 0.990835 295.999 3.55788 295.999 6.72404ZM6.73805 55.6362C9.90841 55.6362 12.4784 53.0698 12.4784 49.9036C12.4784 46.738 9.90841 44.1714 6.73805 44.1714C3.56739 44.1714 0.996755 46.738 0.996755 49.9036C0.996755 53.0698 3.56739 55.6362 6.73805 55.6362ZM59.7321 49.9036C59.7321 53.0698 57.1618 55.6362 53.9911 55.6362C50.8205 55.6362 48.2504 53.0698 48.2504 49.9036C48.2504 46.738 50.8205 44.1714 53.9911 44.1714C57.1618 44.1714 59.7321 46.738 59.7321 49.9036ZM101.244 55.6362C104.415 55.6362 106.986 53.0698 106.986 49.9036C106.986 46.738 104.415 44.1714 101.244 44.1714C98.0736 44.1714 95.5038 46.738 95.5038 49.9036C95.5038 53.0698 98.0736 55.6362 101.244 55.6362ZM154.239 49.9036C154.239 53.0698 151.669 55.6362 148.498 55.6362C145.327 55.6362 142.757 53.0698 142.757 49.9036C142.757 46.738 145.327 44.1714 148.498 44.1714C151.669 44.1714 154.239 46.738 154.239 49.9036ZM195.751 55.6362C198.922 55.6362 201.492 53.0698 201.492 49.9036C201.492 46.738 198.922 44.1714 195.751 44.1714C192.581 44.1714 190.01 46.738 190.01 49.9036C190.01 53.0698 192.581 55.6362 195.751 55.6362ZM248.746 49.9036C248.746 53.0698 246.175 55.6362 243.005 55.6362C239.834 55.6362 237.264 53.0698 237.264 49.9036C237.264 46.738 239.834 44.1714 243.005 44.1714C246.175 44.1714 248.746 46.738 248.746 49.9036ZM290.258 55.6362C293.429 55.6362 295.999 53.0698 295.999 49.9036C295.999 46.738 293.429 44.1714 290.258 44.1714C287.087 44.1714 284.517 46.738 284.517 49.9036C284.517 53.0698 287.087 55.6362 290.258 55.6362ZM12.4784 93.0841C12.4784 96.2503 9.90841 98.8168 6.73805 98.8168C3.56739 98.8168 0.996755 96.2503 0.996755 93.0841C0.996755 89.9176 3.56739 87.3515 6.73805 87.3515C9.90841 87.3515 12.4784 89.9176 12.4784 93.0841ZM53.9911 98.8168C57.1618 98.8168 59.7321 96.2503 59.7321 93.0841C59.7321 89.9176 57.1618 87.3515 53.9911 87.3515C50.8205 87.3515 48.2504 89.9176 48.2504 93.0841C48.2504 96.2503 50.8205 98.8168 53.9911 98.8168ZM106.986 93.0841C106.986 96.2503 104.415 98.8168 101.244 98.8168C98.0736 98.8168 95.5038 96.2503 95.5038 93.0841C95.5038 89.9176 98.0736 87.3515 101.244 87.3515C104.415 87.3515 106.986 89.9176 106.986 93.0841ZM148.498 98.8168C151.669 98.8168 154.239 96.2503 154.239 93.0841C154.239 89.9176 151.669 87.3515 148.498 87.3515C145.327 87.3515 142.757 89.9176 142.757 93.0841C142.757 96.2503 145.327 98.8168 148.498 98.8168ZM201.492 93.0841C201.492 96.2503 198.922 98.8168 195.751 98.8168C192.581 98.8168 190.01 96.2503 190.01 93.0841C190.01 89.9176 192.581 87.3515 195.751 87.3515C198.922 87.3515 201.492 89.9176 201.492 93.0841ZM243.005 98.8168C246.175 98.8168 248.746 96.2503 248.746 93.0841C248.746 89.9176 246.175 87.3515 243.005 87.3515C239.834 87.3515 237.264 89.9176 237.264 93.0841C237.264 96.2503 239.834 98.8168 243.005 98.8168ZM295.999 93.0841C295.999 96.2503 293.429 98.8168 290.258 98.8168C287.087 98.8168 284.517 96.2503 284.517 93.0841C284.517 89.9176 287.087 87.3515 290.258 87.3515C293.429 87.3515 295.999 89.9176 295.999 93.0841ZM6.73805 141.996C9.90841 141.996 12.4784 139.43 12.4784 136.264C12.4784 133.098 9.90841 130.532 6.73805 130.532C3.56739 130.532 0.996755 133.098 0.996755 136.264C0.996755 139.43 3.56739 141.996 6.73805 141.996ZM59.7321 136.264C59.7321 139.43 57.1618 141.996 53.9911 141.996C50.8205 141.996 48.2504 139.43 48.2504 136.264C48.2504 133.098 50.8205 130.532 53.9911 130.532C57.1618 130.532 59.7321 133.098 59.7321 136.264ZM101.244 141.996C104.415 141.996 106.986 139.43 106.986 136.264C106.986 133.098 104.415 130.532 101.244 130.532C98.0736 130.532 95.5038 133.098 95.5038 136.264C95.5038 139.43 98.0736 141.996 101.244 141.996ZM154.239 136.264C154.239 139.43 151.669 141.996 148.498 141.996C145.327 141.996 142.757 139.43 142.757 136.264C142.757 133.098 145.327 130.532 148.498 130.532C151.669 130.532 154.239 133.098 154.239 136.264ZM195.751 141.996C198.922 141.996 201.492 139.43 201.492 136.264C201.492 133.098 198.922 130.532 195.751 130.532C192.581 130.532 190.01 133.098 190.01 136.264C190.01 139.43 192.581 141.996 195.751 141.996ZM248.746 136.264C248.746 139.43 246.175 141.996 243.005 141.996C239.834 141.996 237.264 139.43 237.264 136.264C237.264 133.098 239.834 130.532 243.005 130.532C246.175 130.532 248.746 133.098 248.746 136.264ZM290.258 141.996C293.429 141.996 295.999 139.43 295.999 136.264C295.999 133.098 293.429 130.532 290.258 130.532C287.087 130.532 284.517 133.098 284.517 136.264C284.517 139.43 287.087 141.996 290.258 141.996Z" fill="#FB7911"/>
</svg>
