<?xml version="1.0" encoding="utf-8"?>
<!-- Generator: Adobe Illustrator 25.0.0, SVG Export Plug-In . SVG Version: 6.00 Build 0)  -->
<svg version="1.1" id="Шар_1" xmlns="http://www.w3.org/2000/svg" xmlns:xlink="http://www.w3.org/1999/xlink" x="0px" y="0px"
	 viewBox="0 0 502.7 116.1" style="enable-background:new 0 0 502.7 116.1;" xml:space="preserve">
<style type="text/css">
	.st0{fill:#FFFFFF;}
</style>
<g>
	<path class="st0" d="M52.1,57.4C45.9,55,40.5,52.9,40.5,48c0-5.6,5.1-7.6,9.9-7.6C58.6,40.4,63,45,63,45l0.4,0.5l3.7-6.2L66.9,39
		c-0.2-0.2-5.3-5.8-16.3-5.8c-8.8,0-18.2,4.6-18.2,14.8c0,9.6,8.7,13.1,16.4,16.1c6.2,2.5,11.6,4.6,11.6,9.4c0,5.4-5,7.8-10,7.8
		c-9.4,0-15.1-6.1-15.1-6.1l-0.4-0.4l-4.4,5.8l0.2,0.3c0.1,0.1,1.7,2,5,3.9c3,1.8,7.9,3.8,14.5,3.8c10.5,0,18.2-6.3,18.2-15
		C68.5,63.8,59.8,60.4,52.1,57.4"/>
	<path class="st0" d="M124.6,60.6c0,11.6-8.7,20.7-19.8,20.7S85,72.2,85,60.6c0-11.2,8.7-20.1,19.8-20.1S124.6,49.4,124.6,60.6
		 M104.8,33.2c-15.7,0-27.9,12-27.9,27.4c0,15.6,12.3,27.9,27.9,27.9s27.9-12.3,27.9-27.9C132.7,45.2,120.4,33.2,104.8,33.2"/>
	<path class="st0" d="M167.2,13.7c-0.1,0-1.3-0.2-3.3-0.2c-5.5,0-18.4,1.9-18.4,19.7v2h-7.1V42h7.1v45.3h7.9V42h13.3v-6.8h-13.3v-2
		c0-4.7,1.4-12.5,11.2-12.5c1.4,0,2.4,0.2,2.4,0.2l0.6,0.1v-7.2L167.2,13.7z"/>
	<path class="st0" d="M204.7,80.9l-0.6,0.1c0,0-0.9,0.2-2.3,0.2c-4.3,0-11.4-1.8-11.4-13.5V42.1h13.2v-6.9h-13.2V20h-8v15.2h-7v6.9
		h6.9v26.3c0,17.5,11.8,20.1,18.9,20.1c1.9,0,3.1-0.2,3.1-0.2l0.4-0.1L204.7,80.9L204.7,80.9z"/>
	<path class="st0" d="M220.8,71.6c0,0,5.8,5.8,14.4,5.8c3.7,0,6.9-1.7,6.9-4.8c0-7.9-25.7-6.8-25.7-23.8c0-9.8,8.8-15.5,20.2-15.5
		c11.9,0,17.7,6,17.7,6l-4.9,9.7c0,0-4.9-4.6-12.9-4.6c-3.4,0-6.7,1.5-6.7,4.8c0,7.5,25.7,6.5,25.7,23.5c0,8.8-7.7,15.9-20.2,15.9
		c-13.1,0-20.5-7.8-20.5-7.8L220.8,71.6z"/>
	<path class="st0" d="M301.1,54.4c-0.2-7.2-4.7-11-10.5-11c-6.7,0-11.4,4.1-12.6,11H301.1z M291,33.3c15.2,0,23.4,11.1,23.4,25.1
		c0,1.5-0.3,5.1-0.3,5.1h-36.5c0.8,9.2,8,14,15.8,14c8.5,0,15.2-5.8,15.2-5.8l5.1,9.4c0,0-8.1,7.6-21.2,7.6
		c-17.5,0-28.4-12.6-28.4-27.6C264.1,44.7,275.2,33.3,291,33.3"/>
	<path class="st0" d="M327.6,34.5h12.6v9.1c0,2-0.2,3.7-0.2,3.7h0.2c2.4-7.6,8.7-13.6,16.8-13.6c1.2,0,2.4,0.2,2.4,0.2v12.9
		c0,0-1.4-0.2-3.1-0.2c-5.6,0-11.9,3.2-14.4,11.1c-0.8,2.6-1.1,5.5-1.1,8.6v20.9h-13.1L327.6,34.5L327.6,34.5z"/>
	<path class="st0" d="M365.1,34.5H379l11,32.7c1,3.1,1.8,6.6,1.9,6.6h0.2c0.1,0,0.8-3.5,1.9-6.6l11-32.7h13.9l-19,52.8h-15.5
		L365.1,34.5z"/>
	<path class="st0" d="M459,54.4c-0.2-7.2-4.7-11-10.5-11c-6.7,0-11.4,4.1-12.6,11H459z M448.9,33.3c15.2,0,23.4,11.1,23.4,25.1
		c0,1.5-0.3,5.1-0.3,5.1h-36.5c0.8,9.2,8,14,15.9,14c8.5,0,15.2-5.8,15.2-5.8l5.1,9.4c0,0-8.1,7.6-21.2,7.6
		c-17.5,0-28.4-12.6-28.4-27.6C422,44.7,433.1,33.3,448.9,33.3"/>
</g>
<g>
	<path d="M52.1,57.4C45.9,55,40.5,52.9,40.5,48c0-5.6,5.1-7.6,9.9-7.6C58.6,40.4,63,45,63,45l0.4,0.4l3.7-6.2L66.9,39
		c-0.2-0.2-5.3-5.8-16.3-5.8c-8.8,0-18.2,4.6-18.2,14.8c0,9.6,8.7,13.1,16.4,16.1c6.2,2.5,11.6,4.6,11.6,9.4c0,5.4-5,7.8-10,7.8
		c-9.4,0-15.1-6.1-15.1-6.1l-0.4-0.4l-4.4,5.8l0.2,0.3c0.1,0.1,1.7,2,5,3.9c3,1.8,7.9,3.8,14.5,3.8c10.5,0,18.2-6.3,18.2-15
		C68.5,63.8,59.8,60.4,52.1,57.4"/>
	<path d="M124.6,60.6c0,11.6-8.7,20.7-19.8,20.7S85,72.2,85,60.6c0-11.2,8.7-20.1,19.8-20.1S124.6,49.4,124.6,60.6 M104.8,33.2
		c-15.7,0-27.9,12-27.9,27.4c0,15.6,12.3,27.9,27.9,27.9s27.9-12.3,27.9-27.9C132.7,45.3,120.4,33.2,104.8,33.2"/>
	<path d="M167.2,13.7c-0.1,0-1.3-0.2-3.3-0.2c-5.5,0-18.4,1.9-18.4,19.7v2h-7.1V42h7.1v45.3h7.9V42h13.3v-6.8h-13.3v-2
		c0-4.7,1.4-12.5,11.2-12.5c1.4,0,2.4,0.2,2.4,0.2l0.6,0.1v-7.2L167.2,13.7z"/>
	<path d="M204.7,80.9l-0.6,0.1c0,0-0.9,0.2-2.3,0.2c-4.3,0-11.4-1.8-11.4-13.5V42.1h13.2v-6.9h-13.2V20h-8v15.2h-7v6.9h6.9v26.3
		c0,17.5,11.8,20.1,18.9,20.1c1.9,0,3.1-0.2,3.1-0.2l0.4-0.1L204.7,80.9L204.7,80.9z"/>
	<path d="M220.8,71.6c0,0,5.8,5.8,14.4,5.8c3.7,0,6.9-1.7,6.9-4.8c0-7.9-25.7-6.8-25.7-23.8c0-9.8,8.8-15.5,20.2-15.5
		c11.9,0,17.7,6,17.7,6l-4.9,9.7c0,0-4.9-4.6-12.9-4.6c-3.4,0-6.7,1.4-6.7,4.8c0,7.5,25.7,6.5,25.7,23.5c0,8.8-7.7,15.8-20.2,15.8
		c-13.1,0-20.5-7.8-20.5-7.8L220.8,71.6z"/>
	<path d="M301.1,54.4c-0.2-7.2-4.7-11-10.5-11c-6.7,0-11.4,4.1-12.6,11C278,54.4,301.1,54.4,301.1,54.4z M291,33.3
		c15.2,0,23.4,11.1,23.4,25.1c0,1.6-0.3,5.1-0.3,5.1h-36.5c0.8,9.2,8,14,15.8,14c8.5,0,15.2-5.8,15.2-5.8l5.1,9.4
		c0,0-8.1,7.6-21.2,7.6c-17.5,0-28.4-12.6-28.4-27.6C264.1,44.7,275.2,33.3,291,33.3"/>
	<path d="M327.6,34.5h12.6v9.1c0,2-0.2,3.7-0.2,3.7h0.2c2.4-7.6,8.7-13.6,16.8-13.6c1.2,0,2.4,0.2,2.4,0.2v12.9c0,0-1.4-0.2-3.1-0.2
		c-5.6,0-11.9,3.2-14.4,11.1c-0.8,2.6-1.1,5.5-1.1,8.6v20.9h-13.1L327.6,34.5L327.6,34.5z"/>
	<path d="M365.1,34.5H379l11,32.7c1,3.1,1.8,6.6,1.9,6.6h0.2c0.1,0,0.8-3.5,1.9-6.6l11-32.7h13.9l-19,52.8h-15.5L365.1,34.5z"/>
	<path d="M459,54.4c-0.2-7.2-4.7-11-10.5-11c-6.7,0-11.4,4.1-12.6,11C435.9,54.4,459,54.4,459,54.4z M448.9,33.3
		c15.2,0,23.4,11.1,23.4,25.1c0,1.6-0.3,5.1-0.3,5.1h-36.5c0.8,9.2,8,14,15.9,14c8.5,0,15.2-5.8,15.2-5.8l5.1,9.4
		c0,0-8.1,7.6-21.2,7.6c-17.5,0-28.4-12.6-28.4-27.6C422,44.7,433.1,33.3,448.9,33.3"/>
</g>
</svg>
