<?xml version="1.0" encoding="utf-8"?>
<!-- Generator: Adobe Illustrator 25.0.0, SVG Export Plug-In . SVG Version: 6.00 Build 0)  -->
<svg version="1.1" id="Layer_1" xmlns="http://www.w3.org/2000/svg" xmlns:xlink="http://www.w3.org/1999/xlink" x="0px" y="0px"
	 viewBox="0 0 189.14 56.02" style="enable-background:new 0 0 189.14 56.02;" xml:space="preserve">
<style type="text/css">
	.st0{fill:#BA0C2F;}
	.st1{fill:#231F20;}
</style>
<g>
	<path class="st0" d="M4.72,0C2.12,0,0,2.12,0,4.72V55.4h12.52c-2.54-0.56-4.54-1.43-5.68-2.3l2.49-5.98
		c2.43,1.56,5.79,2.68,9.47,2.68c4.05,0,7.73-2.18,7.73-6.23c0-2.74-1.81-4.61-5.86-6.79c-4.86-2.62-8.54-5.92-8.54-10.96
		c0-8.04,6.98-13.02,15.45-13.02c4.67,0,7.66,1.12,9.35,2.12l-2.37,5.98c-1.37-0.75-4.17-1.93-7.6-1.87c-4.61,0-7.23,2.68-7.23,5.48
		c0,2.87,2.37,4.61,6.29,6.79c5.11,2.68,8.16,6.04,8.16,11.15c0,6.72-4.38,11.36-10.9,12.96h13.57l5.68-30.34h7.23L44.15,55.4h7.32
		c2.59,0,4.72-2.12,4.72-4.72V0H4.72z M47.4,20.7h-0.06c-2.18,0-3.68-1.56-3.68-3.86c0-2.55,1.99-4.36,4.36-4.36
		c2.31,0,3.86,1.56,3.86,3.86C51.82,19.01,49.83,20.7,47.4,20.7z"/>
	<path class="st1" d="M71.63,19.82H60.67v-6.42h29.71v6.42H79.29V55.4h-7.66V19.82z"/>
	<path class="st1" d="M97.67,20.7c-2.55,0-4.24-1.87-4.24-4.11c0-2.37,1.74-4.17,4.3-4.17c2.62,0,4.24,1.81,4.3,4.17
		c0,2.24-1.68,4.11-4.3,4.11H97.67z M93.87,55.4V25.06h7.66V55.4H93.87z"/>
	<path class="st1" d="M108.08,34.09c0-3.49-0.12-6.42-0.25-9.03h6.54l0.37,4.49h0.19c1.43-2.37,4.17-5.17,9.35-5.17
		c3.99,0,7.1,2.24,8.41,5.61h0.12c1.06-1.68,2.3-2.93,3.68-3.8c1.74-1.18,3.68-1.81,6.23-1.81c4.98,0,10.09,3.43,10.09,13.15V55.4
		h-7.48V38.64c0-5.05-1.74-8.04-5.42-8.04c-2.62,0-4.55,1.87-5.36,4.05c-0.25,0.69-0.37,1.68-0.37,2.55V55.4h-7.48V37.83
		c0-4.24-1.68-7.23-5.23-7.23c-2.87,0-4.8,2.24-5.54,4.3c-0.25,0.81-0.37,1.68-0.37,2.55V55.4h-7.48V34.09z"/>
	<path class="st1" d="M164.46,42.38c0.19,5.48,4.49,7.85,9.34,7.85c3.55,0,6.04-0.56,8.41-1.37l1.12,5.23
		c-2.62,1.12-6.23,1.93-10.59,1.93c-9.84,0-15.64-6.04-15.64-15.33c0-8.41,5.11-16.32,14.83-16.32c9.84,0,13.08,8.1,13.08,14.77
		c0,1.43-0.12,2.55-0.25,3.24H164.46z M177.79,37.02c0.06-2.8-1.18-7.41-6.29-7.41c-4.74,0-6.73,4.3-7.04,7.41H177.79z"/>
	<g>
		<path class="st1" d="M186.92,24.72c1.23,0,2.22,0.98,2.22,2.18c0,1.23-0.99,2.21-2.24,2.21c-1.26,0-2.27-0.98-2.27-2.21
			c0-1.21,1.01-2.18,2.27-2.18H186.92z M186.88,25.23c-0.92,0-1.62,0.74-1.62,1.69c0,0.94,0.7,1.69,1.64,1.69
			c0.94,0.01,1.62-0.75,1.62-1.69c0-0.95-0.69-1.69-1.62-1.69H186.88z M186.59,28h-0.58v-2.09c0.17-0.04,0.48-0.08,0.87-0.08
			c0.44,0,0.64,0.07,0.78,0.17c0.13,0.08,0.22,0.23,0.22,0.44c0,0.23-0.2,0.42-0.46,0.49v0.03c0.22,0.08,0.34,0.25,0.4,0.53
			c0.06,0.3,0.1,0.43,0.14,0.51h-0.62c-0.07-0.08-0.1-0.26-0.16-0.48c-0.04-0.22-0.16-0.31-0.39-0.31h-0.21V28z M186.6,26.8h0.21
			c0.25,0,0.43-0.09,0.43-0.29c0-0.18-0.13-0.29-0.4-0.29c-0.1,0-0.18,0.01-0.23,0.01V26.8z"/>
	</g>
</g>
</svg>
