<?xml version="1.0" encoding="utf-8"?>
<!-- Generator: Adobe Illustrator 24.1.2, SVG Export Plug-In . SVG Version: 6.00 Build 0)  -->
<svg version="1.1" id="Шар_1" xmlns="http://www.w3.org/2000/svg" xmlns:xlink="http://www.w3.org/1999/xlink" x="0px" y="0px"
	 viewBox="0 0 2000 485.69" style="enable-background:new 0 0 2000 485.69;" xml:space="preserve">
<g>
	<g>
		<path d="M1573.77,150.79c0,13.01,0.09,26.02-0.01,39.03c-0.36,45.84-36.38,83.69-82.42,86.69c-45.18,2.94-86.29-29.55-92.66-74.18
			c-8.03-56.24,33.25-100.1,84.34-102.05c16.83-0.64,32.65,3.58,47.25,12.13c1.4,0.82,2.76,1.72,4.17,2.52
			c1.88,1.08,3.1,0.79,3.13-1.66c0.03-3.25,0.12-6.51,0.04-9.76c-0.06-2.64,1.13-3.8,3.73-3.79c9.52,0.03,19.05,0.07,28.57-0.02
			c4.42-0.04,3.86,3.03,3.86,5.77C1573.78,120.59,1573.77,135.69,1573.77,150.79z M1436.81,190.96c0.64,3.21,1.24,9.28,3.08,14.94
			c11.71,36.1,55.17,46.65,80.23,19.63c18.9-20.37,19.32-52.25,0.97-73.1c-18.17-20.64-48.54-21.75-68.15-2.45
			C1442.3,160.46,1437.34,173.35,1436.81,190.96z"/>
		<path d="M263.99,232.15c-1.46,1.58-2.8,3.07-4.19,4.52c-32,33.57-70.84,45.84-115.33,32.86c-44.61-13.01-71.97-43.9-80.36-89.83
			C52.57,116.45,96.12,56.35,160.18,47.64c60.27-8.19,105.39,28.06,122.38,71.82c0.34,0.86,0.55,1.78,0.92,2.63
			c1.2,2.73,0.24,3.94-2.64,3.89c-0.93-0.02-1.86,0.03-2.79,0.02c-5.34-0.04-11.56,1.59-15.77-0.63c-4.02-2.12-6.02-8.18-8.76-12.59
			c-19.97-32.09-57.36-48.77-93.97-41.87c-36.87,6.95-66.42,36.54-72.94,73.47c-9.81,55.57,32.55,104.18,84.52,106.76
			c39.61,1.96,76.49-21.91,90.14-59.23c0.32-0.87,0.62-1.75,0.98-2.6c1.32-3.15,0.68-4.57-3.12-4.51
			c-11.38,0.17-22.76,0.06-34.14,0.05c-13.01,0-26.02-0.14-39.02,0.08c-4.07,0.07-6.06-0.85-5.71-5.35
			c0.33-4.39,0.13-8.82,0.09-13.23c-0.03-2.61,1.15-3.87,3.75-3.85c1.39,0.01,2.79-0.05,4.18-0.05c29.96,0,59.93-0.01,89.89,0.01
			c7.86,0.01,7.9,0.05,7.9,8.14c0.02,30.43,0.02,60.86,0,91.29c-0.01,7.66-0.05,7.74-7.62,7.68c-4.14-0.03-10.06,1.16-11.95-1.01
			c-2.27-2.61-1.3-8.2-1.4-12.51c-0.18-7.43-0.09-14.86-0.15-22.3C264.94,233.37,264.52,233.01,263.99,232.15z"/>
		<path d="M1198.53,187.18c0.1-48.73,39.47-88.21,88.13-88.37c49.14-0.16,88.79,39.73,88.72,89.25
			c-0.08,48.54-39.89,88.02-88.55,87.81C1237.44,275.66,1198.42,236.47,1198.53,187.18z M1335.82,187.31
			c0.11-10.75-2.96-20.59-8.68-29.61c-17.03-26.87-52.73-30.39-74.65-7.38c-18.63,19.55-19.37,52.16-1.65,72.49
			c18.15,20.82,47.32,23.03,67.54,4.74C1330.18,216.89,1335.73,203.19,1335.82,187.31z"/>
		<path d="M1845.41,161.64c-1.39,0.01-2.81-0.15-4.18,0.03c-10.03,1.3-16.96-1.77-23.97-10.22c-20.14-24.27-57.93-20.73-75.17,5.87
			c-12.99,20.04-10.74,49.02,5.18,66.78c21.77,24.28,58.64,20.93,75.89-7.23c2.63-4.29,5.35-5.51,9.93-5.38
			c9.52,0.26,19.04,0.05,28.57,0.09c6.52,0.03,6.68,0.13,4.24,6.46c-9.9,25.69-27.47,43.98-53.52,53.18
			c-51.24,18.09-105.55-12.43-116.55-65.63c-10.87-52.59,26.93-100.52,77.27-105.78c41.76-4.37,77.45,20.48,91.21,53.67
			c0.35,0.86,0.68,1.72,0.99,2.6c1.81,5.13,1.67,5.43-3.87,5.55C1856.1,161.72,1850.76,161.63,1845.41,161.64z"/>
		<path d="M601.71,92.16c0,10.45-0.04,20.91,0.05,31.36c0.01,1.44,0.73,2.87,1.11,4.3c1.09-0.78,2.32-1.42,3.26-2.35
			c10.34-10.11,22.51-17.08,36.35-21.09c48.19-13.97,99.49,17.71,108.63,67.05c8.46,45.7-17.39,89.28-60.88,101.68
			c-30.74,8.77-58.23,1.88-82.34-18.97c-1.67-1.44-3.64-2.53-5.47-3.78c-0.24,2.26-0.68,4.52-0.7,6.78
			c-0.11,12.44-0.07,12.46-12.69,12.43c-11.13-0.03-10.05,1-10.05-10.14c-0.02-65.27-0.01-130.55-0.01-195.82
			c0-1.63,0.12-3.26-0.01-4.88c-0.28-3.49,1.07-5.18,4.74-5.05c4.41,0.15,8.83,0.15,13.24,0c3.66-0.13,4.83,1.53,4.79,5.03
			c-0.13,11.15-0.05,22.3-0.05,33.45C601.7,92.16,601.71,92.16,601.71,92.16z M601.71,189.12c0.09,35.32,28.63,64.61,63.04,64.71
			c34.8,0.1,63.44-29.24,63.4-64.94c-0.04-35.24-28.65-64.72-62.95-64.87C630.71,123.87,601.62,153.7,601.71,189.12z"/>
		<path d="M956.58,190.69c0,23.69,0.01,47.38-0.01,71.07c-0.01,7.77-0.05,7.89-7.5,7.78c-4.8-0.08-9.6-0.59-14.4-0.9
			c-0.22-4.6-0.37-9.2-0.71-13.79c-0.12-1.68-0.71-3.33-1.09-4.99c-1.29,0.89-2.71,1.64-3.86,2.68
			c-14.09,12.89-30.4,20.86-49.47,23.44c-44.87,6.08-88.21-24.48-97.17-68.81c-9.48-46.85,18.54-92.12,64.94-103.36
			c30.23-7.32,57.45-0.18,80.75,20.78c0.52,0.47,0.94,1.05,1.5,1.46c1.08,0.79,2.22,1.49,3.33,2.22c0.37-1.44,0.94-2.86,1.06-4.32
			c0.32-3.89-1.01-9.55,1.03-11.26c2.55-2.14,7.82-1.3,11.91-1.28c10.28,0.06,9.65-1.9,9.67,9.61
			C956.6,144.24,956.58,167.46,956.58,190.69z M870.2,253.82c32.11,0.19,63.5-26.34,63.5-65.13c0-37.31-29.91-64.49-63.21-64.66
			c-34.32-0.17-63.38,29.35-63.56,64.38C806.73,223.8,835.68,253.73,870.2,253.82z"/>
		<path d="M1100.16,144.63c0,27.64-0.01,55.27,0.02,82.9c0.01,7.29,0.08,7.35,7.37,7.36c23.22,0.03,46.45,0,69.67,0.03
			c7.46,0.01,7.46,0.05,7.48,7.68c0.01,6.97-0.24,13.94,0.09,20.9c0.21,4.38-1.45,5.57-5.6,5.54c-17.88-0.16-35.76-0.06-53.64-0.06
			c-18.35,0-36.69,0.03-55.04-0.02c-6.78-0.02-6.84-0.09-6.84-6.97c-0.02-67.11-0.02-134.23,0-201.34c0-6.85,0.06-6.89,6.88-6.94
			c7.66-0.05,15.33-0.06,22.99,0.01c6.49,0.06,6.6,0.12,6.61,6.62C1100.18,88.43,1100.15,116.53,1100.16,144.63z"/>
		<path d="M551.99,189.03c1.08,43.94-35.55,86.18-86.32,86.13c-47.67-0.05-86.08-38.7-86.01-86.62
			c0.06-47.59,38.85-85.75,86.87-85.75C515.09,102.79,553.15,143.92,551.99,189.03z M465.74,253.83
			c34.63,0.05,63.68-29.6,63.66-64.98c-0.02-34.84-29.06-64.6-63.28-64.83c-34.12-0.23-63.4,29.5-63.46,64.46
			C402.6,224.29,431.06,253.78,465.74,253.83z"/>
		<path d="M1485.14,365.84c-34.14-0.73-60.35-13.2-79.64-39.36c-3.39-4.6-3.36-4.69,1.8-7.22c8.53-4.2,17.2-8.13,25.6-12.57
			c3.8-2.01,5.88-1.37,8.77,1.8c11.47,12.61,25.71,19.56,43.04,19.3c21.81-0.32,41.08-15.78,47.08-37.73
			c1.89-6.93,1.89-6.94,9.21-6.94c9.29-0.01,18.58,0.11,27.87-0.05c3.82-0.07,4.61,1.25,4.13,4.99
			c-5.04,39.32-38.67,72.55-78.01,76.82C1491.07,365.29,1487.15,365.64,1485.14,365.84z"/>
		<path d="M1618.11,184.06c0-25.54-0.02-51.07,0.01-76.61c0.01-7.68,0.06-7.71,7.59-7.74c8.59-0.04,17.18-0.05,25.77,0.01
			c6.79,0.05,6.85,0.1,6.85,7.05c0.02,42.95,0.01,85.89,0.01,128.84c0,9.29-0.14,18.57,0.06,27.86c0.08,3.87-1.21,5.33-5.18,5.24
			c-9.51-0.22-19.03-0.03-28.55-0.08c-6.43-0.03-6.53-0.09-6.54-6.57C1618.09,236.06,1618.11,210.06,1618.11,184.06z"/>
		<path d="M347.07,161.73c0,33.45,0.01,66.91-0.01,100.36c0,7.44-0.04,7.45-7.7,7.47c-3.72,0.01-7.43-0.05-11.15-0.04
			c-2.31,0.01-3.39-1.11-3.35-3.4c0.02-1.63-0.03-3.25-0.03-4.88c0-66.44,0-132.89,0-199.33c0-1.39,0.1-2.79,0.01-4.18
			c-0.2-3.07,1.4-4.07,4.22-4.03c4.65,0.07,9.29,0.08,13.94,0c2.94-0.05,4.26,1.2,4.08,4.17c-0.11,1.85,0,3.72,0,5.57
			C347.07,96.22,347.07,128.98,347.07,161.73z"/>
		<path d="M1018.97,161.32c0,33.41,0.01,66.82-0.01,100.23c0,7.33-0.04,7.35-7.1,7.41c-3.71,0.03-7.43-0.09-11.14-0.01
			c-3,0.06-4.18-1.34-4-4.24c0.1-1.62,0-3.25,0-4.87c0-65.66,0-131.32,0-196.99c0-1.39,0.11-2.79-0.01-4.17
			c-0.31-3.47,1-5.15,4.68-5c4.4,0.18,8.82,0.15,13.22,0.02c3.34-0.1,4.59,1.42,4.36,4.61c-0.12,1.61-0.01,3.25-0.01,4.87
			C1018.97,95.89,1018.97,128.61,1018.97,161.32z"/>
		<path d="M596.35,434.72c-0.63,0.19-1.14,0.21-1.48,0.46c-20.41,15.22-46.55,6.47-53.35-17.92c-2.77-9.92-2.28-19.8,1.38-29.4
			c8.24-21.6,36.64-29.23,54.5-14.73c4.47,3.63,7.44,8.2,8.87,13.79c0.77,2.99,0.53,5.07-3.39,4.74c-2.08-0.17-4.18-0.1-6.27,0
			c-3.04,0.15-5.06-0.61-6.44-3.84c-4.78-11.16-21.98-10.61-28.74-1.67c-6.76,8.95-7.37,26.48-0.84,35.57
			c4.92,6.85,11.79,8.64,19.69,7.44c6.3-0.95,10.55-4.5,12.48-10.66c1.39-4.44,1.16-4.82-3.3-5.02c-2.32-0.1-4.68-0.28-6.96,0.03
			c-4.59,0.6-5.44-1.61-5.28-5.63c0.25-6.07,0.03-6.18,5.39-6.25c6.97-0.09,13.94,0.08,20.91-0.05c3.29-0.06,4.58,1.3,4.55,4.53
			c-0.08,10.22,0,20.44-0.05,30.66c-0.01,2,0.34,4.67-2.85,4.45c-2.84-0.2-6.86,1.96-7.7-3.25
			C597.3,436.85,596.74,435.8,596.35,434.72z"/>
		<path d="M169.77,403.89c0.01-10.22,0.14-20.44-0.06-30.66c-0.08-4.16,1.21-5.76,5.56-5.63c11.94,0.38,10.25-1.2,10.43,10.45
			c0.07,4.41,0.09,8.83,0.02,13.24c-0.05,3.03,0.85,4.81,4.34,4.75c7.2-0.14,14.4-0.13,21.6,0c3.3,0.06,4.54-1.31,4.47-4.56
			c-0.13-6.04-0.08-12.08,0-18.12c0.07-5.56,0.13-5.68,5.92-5.65c10.69,0.05,9.62-1.23,9.65,9.72c0.06,19.05,0.04,38.1,0,57.14
			c-0.01,6.72-0.09,6.72-6.99,6.76c-0.93,0.01-1.86,0.01-2.79,0c-5.68-0.11-5.74-0.11-5.79-5.74c-0.07-7.2-0.11-14.4,0-21.6
			c0.05-3.23-1.19-4.63-4.48-4.57c-6.73,0.12-13.48,0.21-20.21-0.05c-4.17-0.16-5.9,1.23-5.77,5.53c0.22,6.96-0.13,13.94,0.1,20.9
			c0.14,4.14-1.13,5.77-5.52,5.61c-11.87-0.45-10.33,1.5-10.46-10.35C169.69,422.01,169.76,412.95,169.77,403.89z"/>
		<path d="M992.56,414.34c0-7.2,0.1-14.39-0.05-21.58c-0.07-3.29,1.21-4.72,4.47-4.48c2.76,0.2,5.86-0.43,8.21,0.65
			c4.11,1.88,3.91,2.31,7.94,0.09c7.24-3.98,17.01-2.86,23.04,3.14c2.07,2.06,3.12,1.97,4.93,0.04c4.32-4.6,9.87-5.66,15.92-5.33
			c9.95,0.54,15.72,5.16,16.46,15.21c0.86,11.77,0.54,23.63,0.76,35.45c0.05,2.51-0.86,3.61-3.6,3.86
			c-10.91,1.01-11.2,0.85-11.2-10.15c-0.01-7.89,0.2-15.79-0.1-23.67c-0.26-6.9-3.95-10.03-10.16-9.42
			c-4.25,0.42-6.88,2.91-7.79,6.83c-0.78,3.36-1.05,6.88-1.14,10.34c-0.17,6.26-0.03,12.53-0.06,18.8
			c-0.04,7.22-0.07,7.22-7.23,7.21c-6.9,0-6.94,0-6.96-6.66c-0.04-8.59,0.07-17.18-0.04-25.76c-0.09-7.03-2.33-10.12-7.41-10.72
			c-5.63-0.67-9.82,2.61-11.15,8.98c-0.47,2.25-0.59,4.59-0.62,6.89c-0.08,6.96,0.02,13.93-0.05,20.89
			c-0.06,6.34-0.11,6.4-6.66,6.37c-8.07-0.04-7.48,0.87-7.52-7.47c-0.04-6.5-0.01-13-0.01-19.5
			C992.55,414.34,992.56,414.34,992.56,414.34z"/>
		<path d="M895.03,442.89c-19.83,0.04-34.09-12.54-35.91-32.35c-0.52-5.68-0.15-11.68,1.13-17.23c5.24-22.63,28.1-33.74,49.44-24.41
			c8.67,3.79,14.03,10.31,16.35,19.49c0.73,2.88-0.2,3.89-2.96,3.85c-2.55-0.04-5.11-0.08-7.66,0.02c-2.57,0.1-4.23-0.65-5.41-3.25
			c-3.14-6.9-8.99-9.81-16.32-9.52c-8,0.32-13.56,4.56-16.42,11.94c-3.31,8.53-3.38,17.28-0.17,25.86
			c2.33,6.23,6.75,10.5,13.5,11.81c9.56,1.84,16.32-1.66,19.8-10.93c1.39-3.7,3.15-4.9,6.99-4.91c10.56-0.01,11.35,0.97,7.36,10.86
			C919.85,436.26,909.4,442.86,895.03,442.89z"/>
		<path d="M125.76,441.32c-1.63,0-3.27-0.15-4.87,0.03c-2.63,0.29-3.79-1.12-4.41-3.36c-0.12-0.45-0.31-0.87-0.46-1.31
			c-4.31-11.91-4.31-11.96-17.25-11.88c-4.61,0.03-10.16-1.11-13.54,1.03c-3.01,1.9-3.81,7.53-5.21,11.65
			c-0.98,2.85-2.47,3.83-5.53,3.93c-12.61,0.44-12.57,0.58-8.17-10.97c7.27-19.06,14.58-38.1,21.63-57.23
			c1.49-4.05,3.47-5.73,7.97-5.65c10.82,0.19,10.82-0.05,14.56,9.92c7.16,19.1,14.36,38.18,21.49,57.29
			c2.42,6.49,2.34,6.52-4.82,6.56c-0.46,0-0.93,0-1.39,0C125.76,441.33,125.76,441.32,125.76,441.32z M99.05,387.34
			c-0.43,0.04-0.85,0.08-1.28,0.12c-1.5,4.1-3.05,8.19-4.5,12.3c-4.98,14.08-4.5,14.66,10.56,12.94c0.23-0.03,0.46-0.02,0.69-0.03
			c2.16-0.11,2.74-1.11,2.03-3.18C104,402.13,101.54,394.73,99.05,387.34z"/>
		<path d="M777.88,423.81c0-10.21,0.11-20.43-0.05-30.64c-0.06-3.55,1.25-5.55,4.76-4.79c3.21,0.69,8.45-3.17,9.21,3.69
			c0.89-0.22,1.83-0.32,2.67-0.67c3.35-1.42,6.54-3.79,10-4.24c13.87-1.82,23.11,5.04,26.39,18.77c2.13,8.93,1.55,17.56-2.95,25.64
			c-6.39,11.45-20.14,14.69-31.16,7.55c-1.12-0.73-2.3-1.36-3.46-2.04c-0.4,1.46-1.09,2.9-1.15,4.37
			c-0.16,4.41-0.22,8.83-0.03,13.23c0.16,3.83-1.29,5.65-5.22,5.29c-1.15-0.11-2.33-0.12-3.48,0.01c-4.16,0.45-5.74-1.18-5.62-5.51
			C778.06,444.24,777.88,434.02,777.88,423.81z M817.81,415.25c-0.75-3.3-1.16-7.03-2.47-10.42c-1.91-4.94-6.63-7.73-11.5-7.33
			c-5.08,0.42-8.74,3.06-10.5,7.84c-2.33,6.31-2.34,12.74,0.15,19c1.95,4.93,6.34,7.74,11.4,7.55c5.13-0.19,8.86-2.72,10.68-7.48
			C816.63,421.66,817.01,418.64,817.81,415.25z"/>
		<path d="M1090.41,388.26c2.25,0.39,5.63-1.11,6.45,3.11c0.03,0.16,1.92,0.37,2.52-0.05c16.91-11.63,35.19-0.23,37.05,17.35
			c0.81,7.61,0.47,14.8-2.91,21.68c-6.06,12.32-20.27,16.19-31.85,8.81c-1.28-0.81-2.72-1.36-4.09-2.04
			c-0.18,1.58-0.5,3.15-0.53,4.73c-0.08,4.41-0.2,8.83,0.01,13.22c0.17,3.6-1.25,5.16-4.81,4.87c-0.92-0.07-1.86,0.01-2.78,0
			c-6.51-0.07-6.61-0.08-6.63-6.59c-0.06-19.26-0.05-38.52-0.01-57.78C1082.85,388.2,1082.91,388.2,1090.41,388.26z M1096.16,414.59
			c0.96,3.76,1.43,7.48,2.86,10.79c1.9,4.4,5.77,6.52,10.6,6.51c4.54-0.02,8.2-1.97,10.22-6.02c3.76-7.54,3.78-15.33-0.42-22.61
			c-4.69-8.14-16.13-7.73-20.32,0.68C1097.5,407.12,1097.13,410.93,1096.16,414.59z"/>
		<path d="M445.03,394.53c5.58-6.64,12.01-8.31,19.31-7.63c8.46,0.79,14.33,5.48,14.83,13.83c0.74,12.27,0.45,24.6,0.62,36.91
			c0.04,2.6-1.1,3.89-3.77,3.68c-0.46-0.04-0.93,0.01-1.39,0.01c-10.59-0.11-8.85,0.89-8.99-8.81c-0.09-6.27,0.07-12.55-0.06-18.82
			c-0.06-2.77-0.28-5.58-0.9-8.27c-1.11-4.86-3.6-6.94-8-7.28c-5.27-0.41-8.99,1.41-10.64,5.96c-1,2.77-1.41,5.87-1.49,8.83
			c-0.2,7.89-0.22,15.8-0.01,23.69c0.1,3.61-1.11,4.85-4.75,4.77c-11.62-0.28-9.88,1.01-9.93-9.37c-0.1-19.28-0.05-38.56-0.01-57.85
			c0.01-6.42,0.08-6.43,6.58-6.49c1.39-0.01,2.8,0.11,4.18,0c3.15-0.26,3.96,1.35,3.9,4.2c-0.12,6.04-0.05,12.08-0.01,18.12
			C444.51,391.06,444.74,392.13,445.03,394.53z"/>
		<path d="M1191.27,417.21c0.42,7.17,0.91,14.34,1.17,21.51c0.03,0.83-1.43,2.54-1.88,2.44c-4.34-0.98-9.88,3.11-13.16-2.92
			c-0.13-0.24-2.4,0.43-3.48,1.03c-6.86,3.76-14.07,4.59-21.53,2.42c-7.2-2.09-10.55-6.8-10.66-14.41
			c-0.12-7.85,2.75-12.54,10.05-14.75c4.84-1.47,10-1.89,15-2.84c2.27-0.43,4.66-0.66,6.73-1.57c4.33-1.9,4.73-7.31,0.95-10.14
			c-3.63-2.72-12.78-2.32-14.59,1.59c-2.56,5.51-6.75,4.64-10.99,4.59c-5.97-0.07-6.53-1.01-4.12-6.4c2.37-5.3,6.76-8.27,12.12-9.62
			c7.99-2.01,16.13-2.12,24.08,0.15c7.57,2.16,10.56,6.39,10.7,14.26c0.08,4.88,0.02,9.76,0.02,14.64
			C1191.53,417.19,1191.4,417.2,1191.27,417.21z M1177.04,420.37c-0.27-0.55-1.34-3.67-1.85-3.58c-5.41,0.93-10.9,1.95-15.99,3.92
			c-1.6,0.62-3.06,4.31-2.76,6.32c0.29,2,2.53,4.48,4.52,5.33C1168.85,435.74,1176.6,430.41,1177.04,420.37z"/>
		<path d="M359.57,420.95c0,5.56-0.2,11.12,0.09,16.66c0.13,2.57-0.1,4.32-3.02,3.64c-3.87-0.9-8.87,2.82-11.76-2.78
			c-0.15-0.29-2.79,0.4-4.07,1.04c-6.7,3.32-13.65,4.38-20.87,2.24c-7.32-2.16-11.25-7.49-11.26-14.84
			c-0.01-7.16,3.54-12.4,10.7-14.46c4.86-1.4,9.99-1.87,14.98-2.8c2.04-0.38,4.36-0.4,5.99-1.46c1.7-1.11,3.88-3.36,3.76-4.95
			c-0.15-2.11-1.87-4.86-3.73-5.95c-4.6-2.68-11.28-0.53-14.58,3.98c-1.85,2.52-11.47,4.31-13.78,2.28
			c-0.75-0.66-0.99-2.53-0.7-3.65c1.39-5.32,5.01-8.97,10-10.79c9.19-3.34,18.64-3.25,27.98-0.52c6.64,1.94,9.64,6.9,9.8,13.59
			c0.15,6.25,0.03,12.51,0.03,18.77C359.28,420.95,359.43,420.95,359.57,420.95z M344.51,419.59c-0.34-0.44-1.48-2.99-2.33-2.9
			c-4.55,0.49-9.11,1.35-13.5,2.65c-3.65,1.08-5.72,3.89-5.15,7.94c0.55,3.86,3.46,5.21,6.83,5.77
			C338.49,434.38,344.17,429.5,344.51,419.59z"/>
		<path d="M684.43,386.86c16.95,0.05,27.44,10.79,27.4,28.07c-0.03,16.96-10.93,27.82-27.86,27.79
			c-16.77-0.03-27.46-11.08-27.34-28.24C656.75,397.19,667.2,386.81,684.43,386.86z M670.83,414.64c0.79,3.49,1.14,7,2.39,10.16
			c1.88,4.76,5.83,7.06,10.96,7.09c4.83,0.03,8.65-2.05,10.73-6.41c3.38-7.08,3.33-14.38,0.06-21.49c-2.04-4.43-5.98-6.51-10.7-6.48
			c-4.97,0.03-9.17,2.09-11.01,6.99C672.05,407.7,671.62,411.18,670.83,414.64z"/>
		<path d="M1282.54,422.73c1.4-4.08,2.83-8.15,4.18-12.24c1.81-5.49,3.9-10.92,5.2-16.53c1.05-4.51,3.31-6.29,7.75-5.71
			c0.91,0.12,1.85,0,2.78,0.02c6.34,0.11,6.4,0.14,4.2,6.11c-6.5,17.58-13.26,35.06-19.53,52.72
			c-4.89,13.76-14.01,13.64-25.14,12.48c-4.48-0.47-2.28-4.79-2.64-7.46c-0.33-2.42,0.67-4.06,3.51-3.86c1.38,0.1,2.8,0.27,4.16,0.1
			c4.7-0.58,6.99-3.45,6.24-8.16c-0.4-2.49-1.27-4.93-2.16-7.3c-4.87-13-9.84-25.97-14.7-38.97c-2.04-5.47-1.96-5.62,4.05-5.63
			c11.55-0.02,9.17-0.65,12.37,8.82c2.87,8.5,5.69,17.02,8.53,25.53C1281.74,422.66,1282.14,422.7,1282.54,422.73z"/>
		<path d="M988.3,414.61c0.04,17.38-10.35,28.07-27.31,28.11c-16.83,0.04-28.08-10.9-27.77-27.92
			c0.38-20.39,13.43-28.24,27.58-28.02C978.11,387.06,988.26,397.04,988.3,414.61z M974.39,415.33c-0.59-3.38-0.8-6.2-1.6-8.84
			c-1.71-5.68-6.31-9.03-11.85-9.04c-5.63-0.01-9.92,3.21-11.83,9.03c-1.96,5.95-1.8,11.92,0.45,17.72c1.84,4.76,5.5,7.4,10.63,7.66
			c5.42,0.28,9.59-2.06,11.7-7.04C973.21,421.68,973.67,418.18,974.39,415.33z"/>
		<path d="M768.36,415.34c0,7.2-0.08,14.39,0.04,21.59c0.05,3.25-1.15,4.71-4.49,4.43c-2.07-0.18-4.18,0.04-6.26-0.1
			c-0.86-0.06-2.35-0.46-2.42-0.89c-1.2-7.69-4.17-2.12-6.34-0.82c-7.18,4.3-14.57,4.31-21.99,1.01c-4.32-1.92-6.93-5.69-7.41-10.3
			c-0.7-6.66-0.87-13.39-1.06-20.1c-0.16-5.57,0.15-11.15-0.08-16.71c-0.16-3.98,1.48-5.53,5.3-5.19c0.92,0.08,1.86-0.01,2.78,0
			c6.53,0.07,6.56,0.07,6.6,6.45c0.05,8.82-0.22,17.65,0.13,26.46c0.34,8.35,6.42,12.24,13.85,9.38c3.91-1.51,5.84-4.64,6.23-8.52
			c0.55-5.52,0.71-11.09,0.92-16.64c0.12-3.25-0.18-6.52,0.09-9.74c0.2-2.36,0.59-6.43,1.62-6.67c3.49-0.82,7.32-0.5,10.96-0.07
			c0.67,0.08,1.06,2.69,1.52,4.15c0.13,0.43,0.04,0.92,0.04,1.39c0,6.96,0,13.93,0,20.89C768.37,415.34,768.36,415.34,768.36,415.34
			z"/>
		<path d="M1201.31,414.5c0-6.27-0.03-12.54,0.01-18.81c0.05-7.57,0.12-7.61,7.91-7.43c2.73,0.06,5.89-0.53,6,3.74
			c1.01-0.09,2.39,0.21,2.97-0.34c5.05-4.76,11.2-5.21,17.59-4.68c8.41,0.7,13.12,4.94,14.53,13.29c0.58,3.42,0.89,6.91,0.94,10.37
			c0.13,8.82-0.01,17.65,0.05,26.48c0.02,2.78-0.77,4.07-3.91,4.28c-10.75,0.72-10.73,0.86-10.75-9.87
			c-0.01-7.66,0.21-15.34-0.18-22.99c-0.4-7.88-4.57-11.29-11.63-10.36c-4.14,0.54-6.93,2.86-7.96,6.77c-0.82,3.1-1.22,6.39-1.3,9.6
			c-0.19,7.43-0.16,14.86-0.03,22.29c0.06,3.17-0.84,4.6-4.32,4.53c-11.58-0.22-9.75,0.88-9.91-9.46
			C1201.23,426.11,1201.31,420.31,1201.31,414.5z"/>
		<path d="M368.04,415.07c-0.61-20.47,15.68-33.81,38.78-26.28c6.53,2.13,10.87,6.97,12.57,13.82c0.61,2.46,0,4.11-2.98,4.02
			c-2.09-0.06-4.19-0.11-6.27,0.05c-2.6,0.2-3.96-0.78-5.33-3.17c-4.6-8.05-15.3-8.11-19.66-0.07c-3.86,7.13-3.97,14.72-0.41,22.1
			c1.97,4.08,5.43,6.35,10.04,6.32c4.52-0.03,8.68-1.78,9.94-6.2c1.39-4.88,4.39-5.21,8.32-4.85c0.92,0.08,1.87,0.13,2.78,0
			c4.49-0.65,4.34,1.89,3.56,5c-2.22,8.84-10.29,15.6-20.14,16.81C380.83,444.87,368.01,433.55,368.04,415.07z"/>
		<path d="M1638.88,31.74c5.11,0,10.22,0.09,15.33-0.03c2.95-0.07,4.17,1.14,4.14,4.1c-0.08,9.76-0.07,19.51,0,29.27
			c0.02,2.86-0.94,4.26-4.01,4.23c-10.68-0.09-21.37-0.09-32.06,0c-2.97,0.03-4.18-1.17-4.17-4.1c0.06-9.76,0.09-19.51-0.02-29.27
			c-0.04-3.46,1.66-4.32,4.74-4.25C1628.2,31.84,1633.54,31.74,1638.88,31.74z"/>
		<path d="M276.48,415.92c0-4.63-0.08-9.27,0.03-13.9c0.07-2.86-0.92-4.45-3.98-4.17c-3.48,0.32-4.97-0.99-4.94-4.71
			c0.02-3.54,1.16-5.17,4.77-4.91c3.49,0.25,4.32-1.87,4.15-4.85c-0.08-1.39-0.01-2.78,0-4.17c0.06-7.16,0.06-7.21,7.18-7.16
			c8.33,0.05,7.37-0.75,7.46,7.45c0.01,0.93,0.12,1.87-0.02,2.78c-0.65,4.49,1.14,6.49,5.74,6.02c3.21-0.33,5.31,0.51,5.2,4.51
			c-0.09,3.42-1,4.98-4.74,5.11c-6.15,0.22-6.16,0.46-6.19,6.66c-0.03,6.49,0.08,12.98-0.03,19.46c-0.07,4.28,1.73,6.86,6.11,6.46
			c5.17-0.47,4.63,2.76,4.83,6.11c0.24,4.09-1.7,5.4-5.36,5.2c-0.46-0.02-0.93,0.01-1.39,0.02c-15.12,0.3-19.71-3.02-18.83-18.26
			c0.15-2.54,0.02-5.1,0.02-7.65C276.49,415.92,276.49,415.92,276.48,415.92z"/>
		<path d="M634.43,394.17c4.65-2.46,8.8-5.48,13.43-6.88c5.03-1.52,6.02-0.21,6.19,5.11c0.05,1.62-0.06,3.24-0.04,4.86
			c0.04,2.7-1.76,2.6-3.73,2.79c-11.38,1.13-15.3,5.33-15.67,16.91c-0.19,6.02,0,12.05-0.07,18.07c-0.07,6.19-0.12,6.29-6.04,6.27
			c-9.13-0.03-8.09,0.95-8.14-8.21c-0.06-12.51-0.03-25.02-0.01-37.53c0.01-7.04,0.04-7.04,5.09-7.3
			C633.47,387.86,633.54,387.91,634.43,394.17z"/>
		<path d="M258.77,415.04c0,7.41-0.06,14.83,0.03,22.24c0.04,2.92-1.08,3.93-4.06,4.12c-10.61,0.66-10.6,0.78-10.6-9.95
			c0-12.51,0.15-25.02-0.08-37.52c-0.07-4.1,0.98-6.2,5.38-5.67c1.14,0.14,2.31-0.01,3.47,0.02c5.71,0.17,5.78,0.18,5.85,5.93
			c0.08,6.95,0.02,13.9,0.02,20.85C258.78,415.04,258.78,415.04,258.77,415.04z"/>
		<path d="M490.72,414.92c0-6.96-0.06-13.93,0.02-20.89c0.07-5.63,0.14-5.63,5.94-5.77c8.18-0.19,8.22-0.19,8.23,7.79
			c0.03,13,0.05,26-0.01,39c-0.03,6.18-0.12,6.18-6.07,6.27c-1.39,0.02-2.8-0.11-4.18,0.02c-3.13,0.29-3.99-1.28-3.96-4.13
			c0.1-7.43,0.03-14.86,0.03-22.29C490.73,414.92,490.72,414.92,490.72,414.92z"/>
		<path d="M1926.05,45.67c13.67,0.02,23.56,9.98,23.64,23.79c0.07,14.01-10.23,24.56-23.89,24.46
			c-13.29-0.09-23.69-10.56-23.86-24.03C1901.77,56.06,1912.13,45.65,1926.05,45.67z M1946.19,69.72
			c0.02-12.05-8.64-21.24-20.1-21.31c-11.27-0.07-20.41,9.34-20.5,21.11c-0.09,11.86,8.8,21.16,20.28,21.19
			C1937.52,90.74,1946.17,81.82,1946.19,69.72z"/>
		<path d="M251.35,379.7c-6.91,0-9.17-3.09-7.03-9.85c0.27-0.85,1.38-1.84,2.24-2c1.79-0.33,3.68-0.18,5.53-0.17
			c6.83,0.04,7.01,0.24,6.69,6.99C258.55,379.64,258.47,379.7,251.35,379.7z"/>
		<path d="M497.73,366.92c6.53,0.79,9.51,5.35,6.77,10.89c-0.41,0.83-1.62,1.52-2.59,1.75c-1.31,0.31-2.73,0.14-4.11,0.14
			c-6.69,0.02-9.43-3.57-6.7-9.83C491.82,368.23,495.45,367.87,497.73,366.92z"/>
		<path d="M1925.03,56.84c1.39,0,2.79-0.09,4.18,0.02c6.32,0.5,9.42,5.26,6.2,10.58c-1.5,2.49-1.28,3.84-0.14,5.92
			c0.53,0.97,0.87,2.29,0.69,3.34c-0.31,1.78-1.12,3.47-1.71,5.2c-1.03-1.52-2.68-2.94-2.97-4.59c-0.56-3.21-1.8-5.09-5.22-5.36
			c-3.04-0.23-4.77,0.49-4.93,4.03c-0.09,1.96-1.59,5.6-2.06,5.54c-3.91-0.51-2.04-3.88-2.21-6.04c-0.32-4.16-0.13-8.35-0.08-12.53
			c0.07-6.02,0.1-6.02,6.17-6.12c0.7-0.01,1.39,0,2.09,0C1925.03,56.83,1925.03,56.84,1925.03,56.84z M1926.34,68.12
			c2.6,0.11,5.38-0.6,5.3-3.78c-0.07-3.18-2.93-3.55-5.69-3.61c-3-0.06-4.89,0.54-4.7,4.16
			C1921.45,68.45,1923.81,68.12,1926.34,68.12z"/>
	</g>
</g>
</svg>
