<?xml version="1.0" encoding="utf-8"?>
<!-- Generator: Adobe Illustrator 24.1.2, SVG Export Plug-In . SVG Version: 6.00 Build 0)  -->
<svg version="1.1" id="Шар_1" xmlns="http://www.w3.org/2000/svg" xmlns:xlink="http://www.w3.org/1999/xlink" x="0px" y="0px"
	 viewBox="0 0 2000 599" style="enable-background:new 0 0 2000 599;" xml:space="preserve">
<style type="text/css">
	.st0{fill:#D40303;}
	.st1{fill:#020202;}
</style>
<g>
	<g>
		<path class="st0" d="M1980.73,315.73c-4.46,13.15-9.06,26.25-13.36,39.45c-16.96,52-33.73,104.05-50.83,156
			c-2.61,7.93-6,15.73-10.01,23.05c-6.83,12.46-17.59,20.1-31.92,21.32c-7.49,0.64-15.12-0.28-22.68-0.49
			c-2.54-0.07-3.58-1.32-3.54-3.9c0.11-6.37,0.08-12.74,0.01-19.11c-0.03-2.25,0.48-3.55,3.11-3.02c1.4,0.28,2.86,0.26,4.29,0.38
			c12.02,1.04,21.78-3.23,27.19-14.03c4.64-9.28,7.88-19.28,11.35-29.1c0.65-1.83-0.27-4.4-0.95-6.47
			c-17.48-52.48-35.02-104.94-52.55-157.4c-0.83-2.48-1.61-4.96-2.63-8.1c11.84,0,22.9,0.04,33.97-0.02
			c3.35-0.02,3.16,2.66,3.76,4.65c4.97,16.47,9.88,32.97,14.81,49.45c6.16,20.61,12.32,41.22,18.5,61.82
			c0.47,1.56,1.07,3.07,1.91,5.47c4.84-17.8,9.47-34.77,14.08-51.73c5.85-21.55,11.75-43.09,17.47-64.68
			c0.97-3.67,2.43-5.26,6.6-5.08c10.46,0.43,20.95,0.25,31.42,0.32C1980.73,314.91,1980.73,315.32,1980.73,315.73z"/>
		<path class="st1" d="M1980.73,139.37c-3.42,9.89-9.33,17.62-19.09,22.01c-21.46,9.67-45.27-1.8-50.54-24.64
			c-3.14-13.61-3.22-27.31,1.83-40.58c7.18-18.89,24.71-27.84,43.47-22.21c14.68,4.4,20.53,15.86,23.13,29.75
			c0.11,0.6,0.1,1.23,0.14,1.84c0.35,1.41,0.7,2.82,1.05,4.24c0,5.34,0,10.69,0,16.03c-2.02-0.17-4.03-0.49-6.05-0.5
			c-13.11-0.05-26.23-0.02-39.34-0.02c-11.66,0-12.43,1.12-8.21,12.26c0.72,1.89,1.64,3.77,2.8,5.41
			c7.01,9.89,25.02,11.07,30.81,1.27c3.35-5.67,7.05-6.79,12.62-6.19c2.43,0.26,4.91,0.09,7.37,0.11
			C1980.73,138.54,1980.73,138.96,1980.73,139.37z M1924.39,111.52c13.69,0,25.74-0.04,37.79,0.03c2.21,0.01,3.06-0.88,2.62-2.93
			c-0.9-4.17-1.34-8.56-2.99-12.43c-2.68-6.32-7.85-9.62-14.9-10c-7.43-0.4-13.53,1.94-16.8,8.78
			C1927.78,99.86,1926.5,105.26,1924.39,111.52z"/>
		<path class="st0" d="M1980.73,109.77c-0.35-1.41-0.7-2.82-1.05-4.24c0.35-0.64,0.7-1.29,1.05-1.93
			C1980.73,105.66,1980.73,107.71,1980.73,109.77z"/>
		<path class="st1" d="M483.52,561.12c-24.38-0.76-45.32-7-65.71-15.43c-39.87-16.49-75.91-39.56-110.56-64.96
			c-6.46-4.73-12.89-9.52-19.07-14.6c-2.6-2.14-4.16-1.89-6.7,0.11c-24.19,19.08-49.33,36.82-75.94,52.41
			c-27.48,16.11-55.79,30.38-86.93,38.1c-16.06,3.98-32.27,6.06-48.74,2.28c-23-5.29-38.23-22.03-41.58-45.44
			c-2.81-19.63,1.04-38.42,6.93-56.92c10.97-34.47,28.27-65.86,48.13-95.82c12.01-18.11,25.08-35.54,37.98-53.04
			c2.48-3.37,2.84-5.2,0.09-8.68c-21.52-27.25-41.26-55.73-58.14-86.12c-14.37-25.87-26.9-52.54-33.1-81.71
			c-3.01-14.15-4.28-28.4-0.97-42.75c5.38-23.31,22.19-38.51,45.93-41.79c19.44-2.69,38.03,1.12,56.32,6.93
			c34.47,10.95,65.87,28.24,95.84,48.1c18.29,12.12,35.86,25.34,53.52,38.37c3.3,2.44,5.07,2.33,8.2-0.13
			c30.7-24.13,62.82-46.15,97.48-64.27c22.39-11.71,45.46-21.77,70.33-27c14.16-2.98,28.39-4.31,42.75-1.03
			c23.37,5.34,38.59,22.1,41.93,45.81c2.73,19.43-1.04,38.05-6.86,56.33c-11.03,34.65-28.39,66.25-48.43,96.35
			c-12.05,18.09-25.1,35.52-37.99,53.04c-2.35,3.2-2.61,4.97-0.08,8.2c24.15,30.68,46.17,62.8,64.3,97.46
			c11.71,22.39,21.79,45.45,27.04,70.32c3.03,14.37,4.37,28.79,0.97,43.35c-5.31,22.74-21.83,38.05-44.96,41.32
			C490.87,560.55,486.15,560.85,483.52,561.12z M143.85,326.9c-19.33,24.93-36.82,49.98-52,76.58
			c-12.62,22.12-23.9,44.85-30.59,69.57c-3.39,12.53-6.02,25.18-3.31,38.27c2.14,10.32,8.24,17.04,18.61,18.81
			c6.19,1.05,12.7,1.28,18.96,0.71c16.49-1.49,32.02-6.87,47.14-13.33c42.76-18.27,81.04-43.89,117.57-72.31
			c0.24-0.18,0.26-0.63,0.52-1.31C218.86,408.2,179.99,369.31,143.85,326.9z M261.28,162.45c-1.84-1.5-3.22-2.7-4.67-3.81
			c-24.46-18.73-49.82-36.15-76.77-51.13c-20.64-11.47-41.85-21.68-64.77-27.83c-12.53-3.37-25.2-5.99-38.28-3.2
			c-10.31,2.2-16.93,8.38-18.65,18.76c-1,6-1.62,12.4-0.65,18.33c1.73,10.67,4.12,21.34,7.4,31.64
			c6.61,20.78,16.63,40.07,27.46,58.94c15.15,26.38,32.5,51.26,51.52,75.72C179.96,237.51,218.97,198.49,261.28,162.45z
			 M426.45,279.22c18.92-24.27,36.48-49.51,51.74-76.3c12.5-21.94,23.68-44.5,30.3-69.02c3.38-12.53,6.06-25.16,3.38-38.27
			c-2.18-10.61-8.45-17.4-19.09-19.02c-6.21-0.95-12.7-1.12-18.96-0.55c-16.29,1.47-31.6,6.86-46.55,13.18
			c-37.64,15.93-71.68,37.96-104.41,62.14c-4.72,3.49-9.36,7.09-13.81,10.46c20.39,19.18,40.89,37.56,60.33,57
			C388.83,238.27,407.22,258.77,426.45,279.22z M309.08,444.96c24.19,18.82,49.42,36.4,76.21,51.68
			c22.12,12.61,44.88,23.86,69.6,30.51c12.32,3.32,24.79,5.87,37.68,3.24c10.64-2.17,17.47-8.4,19.12-19
			c0.97-6.21,1.11-12.69,0.59-18.96c-1.07-13.17-5.09-25.69-9.78-37.98c-12.36-32.39-29.9-61.97-49.45-90.41
			c-8.57-12.47-17.65-24.59-26.38-36.7c-19.31,20.53-37.69,41.03-57.12,60.47C350.11,407.25,329.61,425.64,309.08,444.96z
			 M393.91,288.37c-0.95-1.23-1.38-1.85-1.87-2.41c-32.25-36.58-66.98-70.62-104.11-102.25c-2.89-2.46-4.37-1.35-6.61,0.55
			c-36.55,31.03-70.66,64.54-102.44,100.43c-0.89,1-1.71,2.06-3.05,3.68C248.79,288.37,320.81,288.37,393.91,288.37z M394.07,318.49
			c-73.11,0-145.22,0-218.17,0c1.16,1.43,1.85,2.34,2.6,3.19c31.88,36.08,66.18,69.68,102.8,100.95c3.23,2.76,4.89,1.86,7.56-0.41
			c32.74-27.86,63.58-57.69,92.51-89.48C385.47,328.25,389.46,323.67,394.07,318.49z"/>
		<path class="st0" d="M835.49,340c0-27.74,0-55.47,0.01-83.21c0-6.03,0.03-6.04,6.01-6.06c8.42-0.02,16.85-0.03,25.27,0
			c5.19,0.02,5.24,0.05,5.24,5.44c0.01,33.9,0.02,67.8,0,101.7c-0.01,20.34,0.07,40.68-0.12,61.02c-0.1,10.73-1.88,21.24-5.53,31.38
			c-7,19.46-20.15,32.6-40.1,38.44c-20.45,5.99-41.03,6-61.2-0.88c-22.99-7.85-35.22-25.28-39.74-48.38
			c-1.68-8.6-2.46-17.52-2.49-26.29c-0.22-52.18-0.12-104.37-0.1-156.55c0-6.37-0.67-5.88,6.02-5.88c8.42,0,16.85-0.03,25.27,0.01
			c5.25,0.03,5.3,0.07,5.31,5.52c0.02,17.26,0.01,34.52,0.01,51.77c0,34.31-0.19,68.62,0.13,102.93c0.09,9.16,0.85,18.53,2.93,27.42
			c3.61,15.39,14.23,23.47,30.06,24.27c4.9,0.25,9.93,0.26,14.73-0.56c13.24-2.26,22.01-10.29,25.03-23.2
			c2.08-8.9,2.95-18.24,3.11-27.4C835.76,387.67,835.49,363.84,835.49,340z"/>
		<path class="st0" d="M1360.49,413.58c-13.76,0-27.53,0.14-41.29-0.09c-3.93-0.07-4.89,1.14-4.6,4.92
			c0.75,10.07,1.97,20,6.02,29.36c4.2,9.71,11.25,15.68,22.17,15.61c11.41-0.07,19.5-5.48,23.76-16.25
			c1.05-2.64,1.33-6.56,3.24-7.65c2.53-1.44,6.32-0.8,9.56-0.85c6.37-0.09,12.74,0.12,19.1-0.08c3.31-0.11,4.48,0.85,3.58,4.2
			c-8.53,31.77-33.06,46.33-56.27,46.98c-32.39,0.91-55.83-17.23-64.21-49.73c-4.79-18.57-4.29-37.44-3.19-56.32
			c0.65-11.09,2.63-21.95,6.34-32.5c11.24-32,36.93-42.97,66.84-39.74c32.24,3.48,45.63,24.37,51.83,49.84
			c3.92,16.09,4.02,32.54,3.94,49c-0.02,3.55-1.96,3.31-4.3,3.31C1388.84,413.57,1374.67,413.58,1360.49,413.58z M1342.48,387.2
			c8.61,0,17.21-0.01,25.82,0.01c1.93,0,3.65,0.11,3.49-2.77c-0.6-10.87-1.72-21.63-6.15-31.74c-4.38-10.02-11.93-15.18-23.03-15.16
			c-10.79,0.02-17.62,5.62-21.76,15.04c-4.34,9.89-5.57,20.43-6.27,31.09c-0.22,3.36,1.3,3.62,3.93,3.58
			C1326.49,387.13,1334.48,387.2,1342.48,387.2z"/>
		<path class="st0" d="M936.96,334.78c4.4-4.29,7.88-7.95,11.64-11.31c19.31-17.23,46.68-14.6,62.18-5.64
			c13.49,7.8,19.92,20.38,22.59,35.01c1.43,7.83,1.97,15.91,2.02,23.88c0.21,34.51,0.09,69.03,0.09,103.55
			c0,6.4-0.02,6.42-6.26,6.43c-7.81,0.01-15.61,0.03-23.42-0.01c-5.29-0.02-5.34-0.06-5.34-5.42c-0.02-34.93,0.02-69.85-0.05-104.78
			c-0.01-4.91,0.01-9.92-0.9-14.71c-3.99-21.01-24.94-29.59-42.7-17.52c-8.95,6.07-14.45,15.02-18.81,24.65
			c-0.79,1.74-0.52,4.02-0.53,6.05c-0.03,35.13-0.01,70.26-0.03,105.4c0,6.81,0.84,6.33-6.21,6.34c-8.22,0.01-16.44-0.11-24.65,0.06
			c-2.93,0.06-3.99-0.81-3.91-3.83c0.19-6.57,0.06-13.15,0.06-19.72c0-47.66-0.01-95.33,0.01-142.99c0-6.69-0.75-5.86,5.91-5.9
			c7.4-0.04,14.79-0.01,22.19-0.01c6.99,0,6.09-0.3,6.13,6.45C936.98,325.16,936.96,329.56,936.96,334.78z"/>
		<path class="st0" d="M1631.29,363.89c-0.82,0-1.64,0.01-2.47,0c-3.69-0.04-8.23,1.21-10.83-0.5c-2.33-1.54-2.48-6.33-3.69-9.66
			c-5.65-15.61-27.49-21.7-40.73-11.6c-7.96,6.07-12.29,24.57,0.99,32.28c6.49,3.77,13.68,6.47,20.75,9.11
			c10.75,4.01,21.72,7.42,31.43,13.81c13.15,8.66,19.93,21.04,20.94,36.49c1.69,26.01-10.84,44.26-35.68,52.16
			c-15.62,4.97-31.53,5.31-47.42,1.38c-20.88-5.15-33.02-18.9-37.58-39.56c-3.13-14.22-2.97-14.26,11.38-14.26
			c1.03,0,2.06-0.01,3.08,0c4.11,0.04,9.16-1.35,12.04,0.55c2.62,1.72,2.87,7.03,4.16,10.76c3.64,10.5,10.9,16.49,21.97,18.04
			c6.86,0.96,13.58,0.53,20.03-1.85c14.23-5.26,18.33-23.03,7.44-33.65c-4-3.9-9.24-6.82-14.38-9.19
			c-8.17-3.77-16.85-6.43-25.08-10.08c-6.15-2.73-12.21-5.88-17.84-9.55c-24.94-16.26-25.52-59,1.37-76.39
			c21.81-14.1,45.2-15.57,68.58-4.31c17.63,8.49,24.4,24.55,26.45,43.09c0.23,2.13-0.42,2.99-2.6,2.95
			C1639.51,363.83,1635.4,363.89,1631.29,363.89z"/>
		<path class="st0" d="M1791.9,392.75c0,14.99-0.14,29.99,0.09,44.98c0.06,4.26,0.72,8.63,1.91,12.72
			c2.51,8.65,8.69,12.83,18.68,12.96c4.09,0.05,8.2-0.46,12.27-0.92c2.57-0.29,3.8,0.29,3.73,3.19c-0.15,6.36-0.07,12.74-0.04,19.1
			c0.01,2.11-0.56,3.29-3,3.69c-11.91,1.99-23.76,2.26-35.31-1.6c-17.85-5.96-27.78-19.05-31.4-37.01c-1.45-7.19-2-14.66-2.07-22.01
			c-0.24-26.91-0.09-53.82-0.09-80.73c0-7.52,0.25-6.46-6.73-6.5c-4.72-0.03-9.45-0.11-14.17,0.03c-2.59,0.08-3.71-0.72-3.65-3.47
			c0.14-6.57,0.11-13.15,0.01-19.72c-0.04-2.42,0.93-3.25,3.27-3.2c5.13,0.1,10.27,0.04,15.41,0.03c5.83-0.02,5.85-0.03,5.86-6.12
			c0.01-11.91,0.16-23.83-0.08-35.74c-0.08-3.83,1.07-4.93,4.86-4.81c8.62,0.27,17.26,0.24,25.88,0.01c3.54-0.1,4.54,1.09,4.49,4.54
			c-0.18,12.32,0.07,24.65-0.15,36.97c-0.07,3.89,0.79,5.46,5.04,5.26c7.58-0.35,15.2-0.02,22.8-0.14c2.55-0.04,3.69,0.59,3.61,3.4
			c-0.18,6.36-0.28,12.75,0.03,19.1c0.17,3.62-1.52,3.95-4.38,3.9c-7.19-0.12-14.38-0.06-21.57-0.03c-5.38,0.02-5.43,0.05-5.44,5.28
			c-0.03,15.61-0.01,31.22-0.01,46.84C1791.79,392.75,1791.84,392.75,1791.9,392.75z"/>
		<path class="st0" d="M1268.62,314.31c-0.82,2.77-1.38,4.93-2.11,7.03c-18.48,53.41-37.03,106.8-55.38,160.25
			c-1.37,3.99-3.17,5.62-7.42,5.2c-4.07-0.4-8.23-0.38-12.31,0c-3.88,0.36-5.22-1.39-6.4-4.77
			c-11.73-33.86-23.65-67.66-35.51-101.47c-6.85-19.52-13.7-39.03-20.53-58.55c-0.8-2.29-1.44-4.64-2.37-7.66
			c11.19,0,21.81,0.03,32.44-0.02c3.1-0.02,2.84,2.56,3.38,4.3c4.34,13.88,8.57,27.79,12.81,41.7
			c7.05,23.11,14.09,46.23,21.15,69.34c0.46,1.49,1.08,2.94,2.03,5.47c3.58-12,6.89-22.94,10.12-33.92
			c7.97-27.12,16-54.21,23.73-81.4c1.24-4.35,3.09-5.78,7.57-5.6C1249.23,314.56,1258.65,314.31,1268.62,314.31z"/>
		<path class="st0" d="M1467.63,334.55c3.98-4.88,6.98-9.27,10.67-12.97c10.59-10.59,23.3-12.89,37.46-8.81
			c2.38,0.69,3.98,1.48,3.9,4.48c-0.2,7.15-0.06,14.32-0.06,21.87c-5.41-0.52-10.4-1.08-15.4-1.47c-10.97-0.86-19.64,3.46-26,12.25
			c-6.24,8.63-10.1,18-10.02,29.06c0.26,33.89,0.1,67.77,0.09,101.66c0,6.04-0.03,6.06-5.96,6.08c-8.22,0.02-16.43-0.15-24.64,0.08
			c-3.6,0.1-4.49-1.2-4.44-4.61c0.18-11.91,0.07-23.82,0.07-35.73c0-41.49-0.03-82.97,0.02-124.46c0.01-8.79-1.41-7.56,7.93-7.64
			c6.98-0.07,13.97-0.03,20.95-0.01c5.37,0.02,5.39,0.04,5.42,5.17C1467.65,324.2,1467.63,328.92,1467.63,334.55z"/>
		<path class="st0" d="M1103.79,400.16c0,26.89,0.01,53.78,0,80.67c0,5.84-0.03,5.85-6.07,5.86c-7.39,0.01-14.78,0.01-22.17,0
			c-7.09,0-7.1-0.01-7.1-6.82c0-24.43,0-48.86,0-73.28c0-28.74,0-57.48,0-86.22c0-6.03,0.02-6.05,5.89-6.06
			c7.6-0.02,15.19-0.04,22.79,0.01c7.68,0.05,6.63-0.82,6.64,6.4C1103.81,347.2,1103.79,373.68,1103.79,400.16z"/>
		<path class="st0" d="M1674.62,400.14c0-26.49-0.02-52.97,0.01-79.46c0.01-7.18-0.81-6.33,6.07-6.37c7.8-0.05,15.6-0.02,23.41-0.01
			c6.14,0.01,5.47-0.45,5.48,5.74c0.02,22.58,0.01,45.17,0.01,67.75c0,31,0.01,62,0,93.01c0,5.87-0.03,5.88-6.06,5.89
			c-7.39,0.01-14.78,0.02-22.17,0c-7.27-0.02-6.73,0.77-6.73-6.48C1674.61,453.53,1674.62,426.83,1674.62,400.14z"/>
		<path class="st1" d="M1003.03,83.84c7.35-8.3,15.41-11.69,25.25-11.43c10.09,0.27,17.26,4.46,22.16,14.87
			c1.06-1.64,1.7-2.83,2.53-3.87c8.42-10.71,19.84-12.52,32.21-10.1c11.78,2.31,18.04,10.89,18.57,24.86
			c0.37,9.64,0.19,19.31,0.22,28.97c0.03,10.48-0.07,20.96,0.05,31.44c0.03,2.89-0.32,4.29-3.9,4.33
			c-11.34,0.11-11.34,0.3-11.34-11.03c0-14.18,0.03-28.35-0.03-42.53c-0.01-3.07-0.28-6.15-0.56-9.21
			c-0.55-6.14-2.75-11.32-9.28-13.06c-6.85-1.82-13.71-1.74-18.8,3.96c-2.49,2.79-4.31,6.47-5.47,10.06
			c-1.04,3.23-1,6.89-1.02,10.36c-0.1,15.61-0.13,31.23,0.03,46.84c0.04,3.33-0.63,4.58-4.28,4.59c-11,0.01-11,0.18-11-10.72
			c0-14.38,0.06-28.77-0.05-43.15c-0.03-3.47-0.29-7-0.99-10.39c-2.45-11.98-16.44-17.01-25.91-9.15c-5,4.15-8.19,9.5-8.13,16.5
			c0.15,17.26-0.07,34.52,0.14,51.78c0.05,3.96-0.94,5.22-5.08,5.14c-10.43-0.21-10.44,0.02-10.44-10.69
			c0-24.04-0.03-48.08,0.02-72.12c0.01-6.97-1.01-5.95,6.3-6.06c0.21,0,0.41,0,0.62,0C1002.79,74.02,1002.79,74.02,1003.03,83.84z"
			/>
		<path class="st1" d="M886.74,172.17c3.27,0,5.73,0.16,8.16-0.03c5.12-0.4,8.86,0.15,11.69,5.87c3.4,6.87,10.73,7.63,17.82,6.62
			c7.47-1.06,13.55-4.74,15.25-12.35c1.53-6.85,1.55-14.03,1.59-21.34c-5.32,4.53-10.56,8.26-17.25,9.42
			c-18.82,3.25-33.38-6.48-38.41-26.03c-3.57-13.88-2.99-27.75,1.7-41.27c7.5-21.59,34.81-28.04,51.36-12.3
			c0.73,0.7,1.47,1.39,2.8,2.64c0.26-1.84,0.7-3.12,0.55-4.32c-0.47-3.83,0.64-5.29,4.89-5.18c10.01,0.25,10.01,0,10.01,9.96
			c0,25.08,0.15,50.15-0.12,75.22c-0.06,5.88-0.66,12.06-2.58,17.54c-6.92,19.7-25.46,23.95-40.3,21.23
			C899.99,195.31,891.02,186.82,886.74,172.17z M941.32,117.11c-0.09,0-0.18,0-0.27,0c0-5.54,0.79-11.22-0.19-16.58
			c-1.37-7.45-10.41-13.93-18.19-14.32c-10.2-0.51-17.54,3.35-20.69,12.04c-4.32,11.91-4.62,24.19-0.36,36.2
			c3.55,10.01,12.71,14.46,23.89,12.37c8.96-1.68,15.8-10.26,15.81-19.85C941.33,123.68,941.32,120.39,941.32,117.11z"/>
		<path class="st1" d="M807.36,75.7c-4.66,0-9.36-0.08-14.05,0.03c-2.18,0.05-2.55-0.94-2.87-2.89
			c-2.17-13.09-7.47-18.1-20.79-18.83c-5.01-0.28-10.23,0.4-15.13,1.58c-6.17,1.49-9.48,6.24-10.51,12.37
			c-1.05,6.31,0.32,12.24,5.86,15.79c4.93,3.16,10.5,5.39,15.95,7.64c7.93,3.28,16.35,5.51,23.93,9.42
			c16.14,8.35,20.1,20.97,17.63,38.25c-1.51,10.55-7.92,17.92-18.02,21.52c-14.82,5.27-29.8,5.46-44.53-0.2
			c-12.81-4.92-19.89-14.65-21.83-28.16c-0.74-5.18-0.68-5.19,4.36-5.26c0.62-0.01,1.23,0,1.85,0c3.08,0.02,6.79-0.99,9.05,0.38
			c1.88,1.15,2.05,5.1,3,7.79c2.5,7.06,8.01,10.78,14.82,12.61c7.24,1.95,14.65,1.93,21.95,0.12c12.33-3.06,17.06-16.31,9.6-26.72
			c-3.47-4.84-8.35-7.87-13.75-9.98c-4.76-1.86-9.75-3.13-14.53-4.95c-5.34-2.04-10.77-4.01-15.78-6.73
			c-12.47-6.77-18.12-17.56-16.73-31.64c1.44-14.54,9.91-23.43,23.69-27.39c11.78-3.38,23.54-3.28,34.96,1.54
			C799.42,47.88,808.05,61.11,807.36,75.7z"/>
		<path class="st1" d="M1320.55,164.68c-9-0.16-17.68-1.54-25.67-5.7c-11.47-5.97-17.61-15.54-18.59-28.47
			c-0.19-2.54,0.34-3.91,3.2-3.56c1.21,0.15,2.46,0.01,3.69,0.03c2.87,0.03,6.35-0.9,8.43,0.4c1.78,1.12,1.99,4.79,2.84,7.35
			c2.44,7.37,8.05,11.21,15.13,13.07c7.05,1.85,14.22,1.84,21.35,0.18c12.65-2.95,17.53-16.23,9.93-26.89
			c-3.61-5.06-8.72-8.03-14.35-10.13c-5.75-2.14-11.69-3.77-17.41-5.98c-4.56-1.76-9.09-3.77-13.32-6.19
			c-12.49-7.14-17.12-18.35-15.42-32.24c1.58-12.9,9.13-21.24,21.25-25.34c12.47-4.21,25.07-4.41,37.27,0.88
			c12.62,5.47,20.02,15.16,21.88,28.99c0.45,3.36,0.01,5.2-3.87,4.67c-1.01-0.14-2.05-0.01-3.08-0.02
			c-2.87-0.04-6.45,0.93-8.41-0.43c-1.75-1.22-1.66-5.03-2.47-7.67c-1.78-5.88-5.46-10.11-11.33-12.05
			c-7.81-2.57-15.79-2.81-23.58-0.1c-12.24,4.26-15.18,20.37-4.88,28.21c4.45,3.39,10.04,5.39,15.31,7.54
			c7.76,3.16,15.98,5.28,23.49,8.9c18.06,8.7,22.3,24.73,18.1,41.83c-3.03,12.36-12.52,18.27-24.27,20.8
			C1330.79,163.82,1325.63,164.06,1320.55,164.68z"/>
		<path class="st1" d="M1671.84,99.02c-6.18,20.5-12.15,39.67-17.63,58.97c-1.16,4.09-2.94,5.38-6.78,4.81
			c-0.8-0.12-1.66-0.12-2.46,0c-3.66,0.55-5.24-0.78-6.24-4.62c-4.99-19.24-10.41-38.36-15.66-57.53
			c-2.38-8.69-4.73-17.39-7.09-26.11c15.84-2.03,15.84-2.03,19.24,12.56c3.4,14.57,6.79,29.15,10.2,43.72
			c0.37,1.58,0.9,3.13,1.75,6.02c3.72-12.35,7.06-23.44,10.4-34.54c2.42-8.04,5.05-16.03,7.15-24.16c0.84-3.23,2.16-4.22,5.42-4.2
			c8.33,0.05,8.33-0.12,10.68,7.8c5.41,18.25,10.81,36.5,16.66,56.26c0.94-3.15,1.57-4.84,1.95-6.58
			c3.84-17.21,7.63-34.43,11.45-51.64c1.28-5.76,1.3-5.75,7.56-5.76c3.06,0,6.13,0,9.7,0c-0.42,1.95-0.68,3.48-1.09,4.97
			c-7.14,26.3-14.39,52.57-21.33,78.93c-1.05,3.99-2.73,5.1-6.64,4.95c-7.31-0.27-7.3-0.05-9.45-7.05
			c-5.3-17.23-10.63-34.45-15.96-51.67C1673.27,102.81,1672.74,101.51,1671.84,99.02z"/>
		<path class="st1" d="M1203.35,162.78c-3.18,0-5.83,0-8.48,0c-8.31,0-8.31,0-10.08-9.02c-1.93,1.56-3.57,2.96-5.28,4.27
			c-9.82,7.55-24.83,8.46-35.38,2.15c-15.71-9.38-16.66-33.66-1.73-44.57c6.34-4.63,13.63-6.58,21.31-7.03
			c5.74-0.33,11.5-0.36,17.25-0.28c2.71,0.04,3.74-0.98,3.52-3.6c-0.22-2.66-0.13-5.36-0.53-7.99c-0.74-4.87-3.37-8.9-8.33-9.49
			c-5.36-0.63-11.05-0.61-16.25,0.61c-2.84,0.67-6.21,4.01-7.1,6.85c-1.44,4.59-3.82,5.6-7.9,5.03c-0.4-0.06-0.82-0.01-1.23-0.01
			c-8.5,0-8.85-0.49-5.98-8.46c3.07-8.55,9.28-13.89,17.66-16.74c7.54-2.57,15.38-2.8,23.1-1.19c13.86,2.9,21.13,11.43,21.83,25.84
			c0.46,9.43,0.14,18.9,0.22,28.35C1200.08,139.22,1199.01,151,1203.35,162.78z M1173.55,121.14c-5.99,1.14-12.16,1.72-17.92,3.57
			c-6.59,2.11-9.37,7.84-8.35,14.65c1.02,6.82,5.26,10.63,12.55,11.16c2.04,0.15,4.11,0.17,6.14-0.05
			c9.31-1.01,18.23-9.58,18.51-17.68C1184.86,121.78,1184.86,121.78,1173.55,121.14z"/>
		<path class="st1" d="M1819.34,162.78c-4,0-7.5-0.28-10.94,0.07c-4.21,0.43-6.78-0.63-6.9-5.32c-0.02-0.99-0.51-1.96-0.94-3.49
			c-1.6,1.24-2.96,2.26-4.28,3.33c-9.69,7.84-20.57,8.84-31.89,4.8c-9.98-3.56-15.7-11.15-16.58-21.69
			c-0.93-11.28,2.76-21.06,13.16-26.43c5.66-2.92,12.32-4.3,18.7-5.33c5.62-0.91,11.47-0.46,17.22-0.41
			c2.53,0.02,3.97-0.59,3.63-3.42c-0.38-3.25-0.31-6.62-1.18-9.72c-0.63-2.22-2.09-4.58-3.87-6.03c-8.67-7.07-24.45-2.73-28.17,7.7
			c-0.76,2.12-1.59,3.09-3.83,2.93c-1.84-0.13-3.7-0.03-5.54-0.03c-7.43-0.01-7.47-0.02-5.39-6.94c2.98-9.91,9.91-15.9,19.55-18.67
			c7.79-2.24,15.78-2.31,23.71-0.29c11.79,3.01,19.12,11.49,19.6,23.69c0.44,11.08,0.28,22.18,0.28,33.27
			C1815.69,141.44,1815.4,152.09,1819.34,162.78z M1789.64,121.15c-6,1.12-12.19,1.65-17.95,3.51c-7.1,2.3-9.54,7.88-8.17,15.8
			c1.04,6.02,5.23,9.54,12.14,10.06c2.04,0.15,4.12,0.16,6.15-0.05c9.19-0.98,18.42-9.7,18.72-17.6
			C1800.96,121.78,1800.96,121.78,1789.64,121.15z"/>
		<path class="st1" d="M1458.19,120.28c-1.32,7.07-2.17,14.87-4.3,22.3c-3.72,12.98-14.11,20.74-27.67,21.54
			c-3.48,0.2-7.01,0.27-10.46-0.1c-12.53-1.34-21.73-7.64-25.84-19.68c-5.8-16.99-6-34.27,0-51.29
			c4.49-12.74,14.05-19.34,27.36-20.3c4.46-0.32,9.11-0.25,13.47,0.64c13.84,2.83,21.42,12.28,24.47,25.44
			C1456.8,105.56,1457.17,112.59,1458.19,120.28z M1442.52,118.29c-0.75-6.14-1-12.55-2.42-18.68c-2.11-9.15-8.18-13.3-17.96-13.44
			c-10.5-0.14-16.29,3.57-18.82,13.05c-3.38,12.69-3.37,25.6-0.08,38.29c2.51,9.7,8.44,13.38,19.37,13.11
			c9.66-0.24,15.66-4.58,17.66-13.82C1441.56,130.84,1441.78,124.65,1442.52,118.29z"/>
		<path class="st1" d="M1492.6,124.81c0-11.1-0.07-22.2,0.05-33.3c0.03-2.79-0.52-4.36-3.71-3.89c-1.21,0.18-2.46,0.03-3.7,0.03
			c-6.78,0-6.78,0-6.78-6.85c0-6.77,0-6.77,6.85-6.78c6.93,0,6.92,0,7.38-6.94c0.08-1.23,0.24-2.45,0.34-3.68
			c1.71-19.99,15-26.29,31.83-25c3.44,0.27,5.43,1.53,4.65,5.37c-0.16,0.79-0.02,1.64-0.02,2.46c-0.01,5.73-0.01,5.73-5.82,5.65
			c-10.81-0.15-15.01,3.8-15.42,14.5c-0.06,1.64,0.06,3.3-0.09,4.93c-0.2,2.25,0.86,2.79,2.9,2.74c4.31-0.11,8.63,0.05,12.95-0.06
			c2.06-0.05,2.74,0.57,2.93,2.75c0.91,10.91,1,10.91-10.16,10.91c-8.6,0-8.6,0-8.6,8.77c0,20.56-0.1,41.11,0.09,61.66
			c0.04,3.82-0.98,4.83-4.78,4.8c-10.9-0.08-10.9,0.11-10.9-10.94C1492.6,142.9,1492.6,133.85,1492.6,124.81z"/>
		<path class="st1" d="M1559.81,114.52c0-7.6-0.15-15.2,0.07-22.79c0.09-3.27-1.01-4.55-4.2-4.09c-0.4,0.06-0.82,0.04-1.23,0
			c-2.97-0.27-8.01,0.27-8.51-0.99c-1.26-3.2-0.59-7.21-0.46-10.88c0.02-0.6,1.13-1.37,1.88-1.68c0.71-0.29,1.62-0.03,2.44-0.08
			c3.2-0.23,7.67,0.68,9.25-1.04c1.68-1.83,0.68-6.18,0.74-9.42c0.07-3.49,0.11-6.98-0.01-10.47c-0.08-2.16,0.81-2.67,2.87-2.85
			c12.38-1.09,12.38-1.15,12.38,11.15c0,3.28,0.11,6.57-0.03,9.85c-0.09,2.17,0.74,2.88,2.84,2.83c4.31-0.1,8.63,0.13,12.93-0.08
			c2.64-0.13,3.11,1.09,3.02,3.29c-0.1,2.46-0.16,4.94,0.02,7.39c0.19,2.55-1,3.11-3.26,3.04c-4.1-0.13-8.21,0.06-12.32-0.07
			c-2.33-0.08-3.25,0.65-3.24,3.11c0.12,14.99-0.22,29.98,0.25,44.96c0.32,10.24,4.99,13.82,15.53,13.83c2.31,0,5.89-2.17,5.98,3.22
			c0.14,8.76,0.03,9.91-5.85,9.77c-5.65-0.13-11.63-0.54-16.82-2.52c-9.73-3.7-13.31-12.34-13.89-22.07
			c-0.47-7.77-0.09-15.59-0.09-23.39C1560,114.52,1559.91,114.52,1559.81,114.52z"/>
		<path class="st1" d="M1862.38,82.68c2.27-1.85,4.39-4.18,7.01-5.57c3.53-1.88,7.34-3.88,11.21-4.35
			c10.27-1.23,12.95,1.96,10.95,11.99c-0.15,0.76-1.39,1.69-2.23,1.82c-1.37,0.21-2.84-0.24-4.27-0.31
			c-13.3-0.66-22.61,8.25-22.62,21.62c-0.01,16.82-0.08,33.64,0.07,50.46c0.03,3.31-0.7,4.53-4.3,4.53
			c-10.96,0-10.96,0.17-10.96-10.74c0-24.2-0.01-48.41,0.01-72.61c0.01-6.3-0.56-5.46,5.63-5.5
			C1862.03,73.96,1862.03,73.98,1862.38,82.68z"/>
		<path class="st0" d="M1691.55,247.92c11.85-0.1,21.56,9.44,21.66,21.28c0.09,11.8-9.52,21.67-21.22,21.8
			c-11.6,0.12-21.69-9.75-21.84-21.37C1670,257.97,1679.81,248.02,1691.55,247.92z"/>
		<path class="st0" d="M1064.33,269.16c0.12-11.79,9.93-21.37,21.74-21.24c11.75,0.13,21.5,10.08,21.34,21.75
			c-0.17,11.63-10.24,21.47-21.85,21.33C1073.87,290.85,1064.22,280.91,1064.33,269.16z"/>
		<path class="st1" d="M853.54,118.32c0,13.36-0.1,26.71,0.07,40.06c0.04,3.37-0.8,4.49-4.35,4.49c-10.94,0-10.94,0.16-10.94-10.8
			c0-24.24,0-48.49,0-72.73c0-6.05-0.33-5.27,5.23-5.32c9.99-0.09,9.99-0.09,9.99,9.78C853.54,95.31,853.54,106.81,853.54,118.32z"
			/>
		<path class="st1" d="M845.56,60.4c-6.03-0.1-10.77-5.01-10.75-11.12c0.02-6.12,4.8-10.97,10.85-11.02
			c6.22-0.04,11.46,5.29,11.23,11.42C856.65,55.64,851.52,60.5,845.56,60.4z"/>
	</g>
</g>
</svg>
